<?xml version="1.0" encoding="UTF-8" standalone="no"?>
<svg
   xmlns:dc="http://purl.org/dc/elements/1.1/"
   xmlns:cc="http://creativecommons.org/ns#"
   xmlns:rdf="http://www.w3.org/1999/02/22-rdf-syntax-ns#"
   xmlns:svg="http://www.w3.org/2000/svg"
   xmlns="http://www.w3.org/2000/svg"
   xmlns:sodipodi="http://sodipodi.sourceforge.net/DTD/sodipodi-0.dtd"
   xmlns:inkscape="http://www.inkscape.org/namespaces/inkscape"
   inkscape:version="1.0 (4035a4fb49, 2020-05-01)"
   sodipodi:docname="organization.svg"
   viewBox="0 0 666.66669 666.66669"
   height="666.66669"
   width="666.66669"
   xml:space="preserve"
   id="svg1747"
   version="1.1"><metadata
     id="metadata1753"><rdf:RDF><cc:Work
         rdf:about=""><dc:format>image/svg+xml</dc:format><dc:type
           rdf:resource="http://purl.org/dc/dcmitype/StillImage" /><dc:title></dc:title></cc:Work></rdf:RDF></metadata><defs
     id="defs1751"><clipPath
       id="clipPath1763"
       clipPathUnits="userSpaceOnUse"><path
         id="path1761"
         d="M 0,500 H 500 V 0 H 0 Z" /></clipPath><clipPath
       id="clipPath1893"
       clipPathUnits="userSpaceOnUse"><path
         id="path1891"
         d="M 0,500 H 500 V 0 H 0 Z" /></clipPath><clipPath
       id="clipPath1905"
       clipPathUnits="userSpaceOnUse"><path
         id="path1903"
         d="M 0,500 H 500 V 0 H 0 Z" /></clipPath><clipPath
       id="clipPath1927"
       clipPathUnits="userSpaceOnUse"><path
         id="path1925"
         d="M 0,500 H 500 V 0 H 0 Z" /></clipPath><clipPath
       id="clipPath1939"
       clipPathUnits="userSpaceOnUse"><path
         id="path1937"
         d="M 196.728,346.139 H 247.63 V 265.585 H 196.728 Z" /></clipPath><clipPath
       id="clipPath1967"
       clipPathUnits="userSpaceOnUse"><path
         id="path1965"
         d="M 239.031,33.197 H 282.59 V 20.5313 h -43.559 z" /></clipPath><clipPath
       id="clipPath2107"
       clipPathUnits="userSpaceOnUse"><path
         id="path2105"
         d="m 201.939,137.563 h 40.528 v -21.339 h -40.528 z" /></clipPath><clipPath
       id="clipPath2193"
       clipPathUnits="userSpaceOnUse"><path
         id="path2191"
         d="M 141.995,250.514 H 159.74 V 231.09 h -17.745 z" /></clipPath><clipPath
       id="clipPath2229"
       clipPathUnits="userSpaceOnUse"><path
         id="path2227"
         d="m 156.755,317.678 h 50.712 v -60.554 h -50.712 z" /></clipPath><clipPath
       id="clipPath2297"
       clipPathUnits="userSpaceOnUse"><path
         id="path2295"
         d="M 0,500 H 500 V 0 H 0 Z" /></clipPath><clipPath
       id="clipPath2329"
       clipPathUnits="userSpaceOnUse"><path
         id="path2327"
         d="m 353.551,196.939 h 17.344 v -20.151 h -17.344 z" /></clipPath><clipPath
       id="clipPath2473"
       clipPathUnits="userSpaceOnUse"><path
         id="path2471"
         d="M 0,500 H 500 V 0 H 0 Z" /></clipPath></defs><sodipodi:namedview
     inkscape:current-layer="g1755"
     inkscape:window-maximized="1"
     inkscape:window-y="-8"
     inkscape:window-x="-8"
     inkscape:cy="171.4793"
     inkscape:cx="308.22176"
     inkscape:zoom="0.85199997"
     showgrid="false"
     id="namedview1749"
     inkscape:window-height="777"
     inkscape:window-width="1280"
     inkscape:pageshadow="2"
     inkscape:pageopacity="0"
     guidetolerance="10"
     gridtolerance="10"
     objecttolerance="10"
     borderopacity="1"
     bordercolor="#666666"
     pagecolor="#ffffff" /><g
     transform="matrix(1.3333333,0,0,-1.3333333,0,666.66667)"
     inkscape:label="3249186"
     inkscape:groupmode="layer"
     id="g1755"><g
       id="g1757"><g
         clip-path="url(#clipPath1763)"
         id="g1759"><g
           transform="translate(300.6461,364.7961)"
           id="g1765"><path
             id="path1767"
             style="fill:#e1e1e1;fill-opacity:1;fill-rule:nonzero;stroke:none"
             d="m 0,0 c -0.719,-0.045 -1.383,-0.492 -1.673,-1.204 l -3.619,-8.921 c -0.229,-0.561 -0.18,-1.196 0.13,-1.716 0.309,-0.521 0.846,-0.866 1.447,-0.932 1.579,-0.175 3.072,-1.065 4.097,-2.442 0.942,-1.266 1.34,-2.778 1.089,-4.148 -0.249,-1.366 -1.159,-2.651 -2.493,-3.529 -1.429,-0.938 -3.173,-1.293 -4.671,-0.944 -3.06,0.709 -5.43,4.091 -5.175,7.386 0.082,1.065 -0.714,1.994 -1.778,2.076 -1.083,0.081 -1.995,-0.713 -2.078,-1.778 -0.4,-5.179 3.259,-10.316 8.159,-11.452 2.54,-0.588 5.337,-0.049 7.666,1.481 2.213,1.455 3.734,3.665 4.173,6.065 0.443,2.421 -0.21,5.028 -1.791,7.152 -1.142,1.535 -2.666,2.7 -4.363,3.373 l 2.791,6.876 C 2.313,-1.667 1.836,-0.54 0.847,-0.139 0.568,-0.026 0.28,0.018 0,0" /></g><g
           transform="translate(304.6354,367.5456)"
           id="g1769"><path
             id="path1771"
             style="fill:#e1e1e1;fill-opacity:1;fill-rule:nonzero;stroke:none"
             d="M 0,0 C 0.349,0.801 -0.018,1.732 -0.818,2.082 -1.619,2.431 -2.551,2.064 -2.899,1.264 -3.249,0.463 -2.883,-0.469 -2.082,-0.818 -1.281,-1.167 -0.35,-0.801 0,0" /></g><g
           transform="translate(244.6725,434.9265)"
           id="g1773"><path
             id="path1775"
             style="fill:#e1e1e1;fill-opacity:1;fill-rule:nonzero;stroke:none"
             d="m 0,0 c 0.288,0.654 0.197,1.444 -0.298,2.025 l -6.217,7.266 c -0.39,0.457 -0.973,0.705 -1.573,0.668 -0.6,-0.035 -1.149,-0.351 -1.483,-0.851 -0.875,-1.313 -2.341,-2.223 -4.023,-2.498 -1.548,-0.254 -3.063,0.086 -4.156,0.933 -1.091,0.843 -1.811,2.231 -1.975,3.81 -0.175,1.689 0.308,3.389 1.299,4.551 2.023,2.375 6.088,2.921 8.878,1.193 0.902,-0.559 2.085,-0.281 2.643,0.62 0.565,0.919 0.281,2.085 -0.62,2.644 -4.385,2.717 -10.587,1.835 -13.826,-1.968 -1.678,-1.972 -2.481,-4.685 -2.193,-7.437 0.272,-2.618 1.527,-4.968 3.444,-6.451 1.933,-1.496 4.53,-2.11 7.126,-1.685 1.876,0.306 3.598,1.118 4.967,2.308 l 4.791,-5.601 c 0.69,-0.805 1.902,-0.9 2.707,-0.21 C -0.283,-0.489 -0.113,-0.255 0,0" /></g><g
           transform="translate(245.2765,430.153)"
           id="g1777"><path
             id="path1779"
             style="fill:#e1e1e1;fill-opacity:1;fill-rule:nonzero;stroke:none"
             d="M 0,0 C 0.547,-0.673 1.536,-0.776 2.209,-0.229 2.883,0.318 2.985,1.307 2.438,1.98 1.892,2.654 0.902,2.756 0.229,2.209 -0.444,1.663 -0.547,0.673 0,0" /></g><path
           id="path1781"
           style="fill:#e1e1e1;fill-opacity:1;fill-rule:nonzero;stroke:none"
           d="M 461.824,300.881 H 372.99 v 128.761 h 88.834 z" /><path
           id="path1783"
           style="fill:#f5f5f5;fill-opacity:1;fill-rule:nonzero;stroke:none"
           d="M 457.374,300.881 H 368.54 v 128.761 h 88.834 z" /><path
           id="path1785"
           style="fill:#ffffff;fill-opacity:1;fill-rule:nonzero;stroke:none"
           d="m 446.337,314.827 h -66.76 v 100.869 h 66.76 z" /><g
           transform="translate(446.3365,314.8268)"
           id="g1787"><path
             id="path1789"
             style="fill:#e1e1e1;fill-opacity:1;fill-rule:nonzero;stroke:none"
             d="m 0,0 c 0,0 -0.009,0.17 -0.013,0.493 -0.003,0.333 -0.008,0.808 -0.013,1.43 -0.006,1.268 -0.015,3.124 -0.027,5.533 -0.013,4.835 -0.034,11.879 -0.059,20.779 -0.028,17.786 -0.065,42.973 -0.11,72.634 L 0,100.647 c -20.396,-0.005 -42.997,-0.012 -66.752,-0.02 h -0.008 l 0.241,0.242 C -66.537,62.817 -66.554,27.733 -66.567,0 L -66.76,0.192 C -46.429,0.15 -29.764,0.115 -18.167,0.091 -12.366,0.07 -7.837,0.053 -4.742,0.042 -3.204,0.033 -2.026,0.025 -1.219,0.021 -0.421,0.014 0,0 0,0 0,0 -0.393,-0.014 -1.178,-0.021 -1.978,-0.026 -3.144,-0.033 -4.666,-0.042 -7.75,-0.054 -12.266,-0.07 -18.048,-0.091 -29.673,-0.116 -46.379,-0.15 -66.76,-0.193 h -0.192 V 0 c -0.014,27.733 -0.03,62.817 -0.049,100.869 l -10e-4,0.242 h 0.242 0.008 c 23.755,-0.007 46.356,-0.014 66.752,-0.02 h 0.222 v -0.222 C 0.177,71.149 0.14,45.912 0.112,28.089 0.087,19.211 0.067,12.184 0.053,7.361 0.041,4.971 0.032,3.13 0.026,1.873 0.021,1.261 0.017,0.794 0.014,0.467 0.009,0.153 0,0 0,0" /></g><g
           transform="translate(457.6227,429.6418)"
           id="g1791"><path
             id="path1793"
             style="fill:#e1e1e1;fill-opacity:1;fill-rule:nonzero;stroke:none"
             d="m 0,0 c 0.052,-0.041 -0.551,-0.92 -1.583,-2.301 -1.032,-1.38 -2.497,-3.257 -4.168,-5.286 -1.673,-2.03 -3.234,-3.828 -4.391,-5.105 -1.157,-1.277 -1.905,-2.038 -1.955,-1.995 -0.05,0.045 0.607,0.885 1.696,2.218 1.191,1.445 2.656,3.222 4.277,5.189 1.619,1.967 3.083,3.745 4.272,5.191 C -0.752,-0.765 -0.054,0.042 0,0" /></g><g
           transform="translate(446.6764,315.1516)"
           id="g1795"><path
             id="path1797"
             style="fill:#ffffff;fill-opacity:1;fill-rule:nonzero;stroke:none"
             d="M 0,0 C 3.316,-5.272 7.23,-10.168 11.645,-14.563" /></g><g
           transform="translate(458.3209,300.5891)"
           id="g1799"><path
             id="path1801"
             style="fill:#e1e1e1;fill-opacity:1;fill-rule:nonzero;stroke:none"
             d="m 0,0 c -0.044,-0.044 -0.837,0.644 -2.03,1.847 -1.194,1.202 -2.776,2.934 -4.393,4.954 -1.615,2.022 -2.956,3.946 -3.866,5.375 -0.911,1.429 -1.408,2.354 -1.356,2.387 0.061,0.037 0.659,-0.821 1.639,-2.195 0.979,-1.375 2.355,-3.255 3.961,-5.265 C -4.437,5.094 -2.906,3.338 -1.781,2.081 -0.656,0.823 0.05,0.05 0,0" /></g><g
           transform="translate(368.527,300.9831)"
           id="g1803"><path
             id="path1805"
             style="fill:#ffffff;fill-opacity:1;fill-rule:nonzero;stroke:none"
             d="M 0,0 C 3.879,4.785 7.758,9.571 11.636,14.356" /></g><g
           transform="translate(380.1627,315.3391)"
           id="g1807"><path
             id="path1809"
             style="fill:#e1e1e1;fill-opacity:1;fill-rule:nonzero;stroke:none"
             d="m 0,0 c 0.104,-0.084 -2.417,-3.366 -5.63,-7.33 -3.214,-3.965 -5.902,-7.11 -6.006,-7.026 -0.103,0.084 2.417,3.365 5.631,7.331 C -2.792,-3.062 -0.104,0.084 0,0" /></g><g
           transform="translate(368.5397,429.6418)"
           id="g1811"><path
             id="path1813"
             style="fill:#e1e1e1;fill-opacity:1;fill-rule:nonzero;stroke:none"
             d="m 0,0 c 0.104,0.083 2.634,-2.94 5.647,-6.751 3.016,-3.813 5.374,-6.97 5.27,-7.052 -0.104,-0.083 -2.633,2.939 -5.648,6.752 C 2.255,-3.24 -0.104,-0.083 0,0" /></g><path
           id="path1815"
           style="fill:#cccccc;fill-opacity:1;fill-rule:nonzero;stroke:none"
           d="m 425.537,331.747 h -22.354 v 63.469 h 22.354 z" /><g
           transform="translate(119.5797,388.6183)"
           id="g1817"><path
             id="path1819"
             style="fill:#e1e1e1;fill-opacity:1;fill-rule:nonzero;stroke:none"
             d="m 0,0 -7.106,-0.038 -0.19,35.361 7.107,0.038 z" /></g><g
           transform="translate(69.2257,404.3654)"
           id="g1821"><path
             id="path1823"
             style="fill:#ececec;fill-opacity:1;fill-rule:nonzero;stroke:none"
             d="m 0,0 -18.403,-0.099 -0.105,19.522 18.404,0.099 z" /></g><g
           transform="translate(87.5416,404.4636)"
           id="g1825"><path
             id="path1827"
             style="fill:#f5f5f5;fill-opacity:1;fill-rule:nonzero;stroke:none"
             d="m 0,0 -18.403,-0.099 -0.105,19.522 18.404,0.099 z" /></g><g
           transform="translate(50.7467,418.3976)"
           id="g1829"><path
             id="path1831"
             style="fill:#e1e1e1;fill-opacity:1;fill-rule:nonzero;stroke:none"
             d="m 0,0 c 12.23,-0.101 24.491,-0.03 36.719,0.168 0.252,0.004 0.25,0.39 -0.002,0.392 C 24.487,0.627 12.227,0.567 -0.001,0.335 -0.217,0.331 -0.216,0.001 0,0" /></g><g
           transform="translate(72.7648,388.7824)"
           id="g1833"><path
             id="path1835"
             style="fill:#ececec;fill-opacity:1;fill-rule:nonzero;stroke:none"
             d="m 0,0 -33.436,-0.179 -0.085,15.908 33.436,0.18 z" /></g><g
           transform="translate(106.0421,388.9606)"
           id="g1837"><path
             id="path1839"
             style="fill:#f5f5f5;fill-opacity:1;fill-rule:nonzero;stroke:none"
             d="m 0,0 -33.436,-0.179 -0.085,15.908 33.436,0.18 z" /></g><g
           transform="translate(39.2677,400.0871)"
           id="g1841"><path
             id="path1843"
             style="fill:#e1e1e1;fill-opacity:1;fill-rule:nonzero;stroke:none"
             d="m 0,0 c 22.212,-0.251 44.502,-0.026 66.713,0.33 0.251,0.004 0.25,0.39 -0.002,0.391 C 44.498,0.838 22.206,0.825 -0.002,0.335 -0.217,0.331 -0.216,0.002 0,0" /></g><path
           id="path1845"
           style="fill:#cccccc;fill-opacity:1;fill-rule:nonzero;stroke:none"
           d="M 156.304,382.904 H 26.764 v 5.7 h 129.54 z" /><path
           id="path1847"
           style="fill:#cccccc;fill-opacity:1;fill-rule:nonzero;stroke:none"
           d="m 53.231,366.415 h -5.259 v 19.448 h 5.259 z" /><path
           id="path1849"
           style="fill:#e1e1e1;fill-opacity:1;fill-rule:nonzero;stroke:none"
           d="m 131.732,366.415 h -5.259 v 19.448 h 5.259 z" /><g
           transform="translate(126.5856,388.5314)"
           id="g1851"><path
             id="path1853"
             style="fill:#ececec;fill-opacity:1;fill-rule:nonzero;stroke:none"
             d="m 0,0 -7.106,-0.038 -0.261,48.634 7.107,0.038 z" /></g><g
           transform="translate(137.6403,388.6999)"
           id="g1855"><path
             id="path1857"
             style="fill:#f5f5f5;fill-opacity:1;fill-rule:nonzero;stroke:none"
             d="m 0,0 -11.042,-0.059 -0.211,39.413 11.042,0.059 z" /></g><g
           transform="translate(137.3551,420.5197)"
           id="g1859"><path
             id="path1861"
             style="fill:#e1e1e1;fill-opacity:1;fill-rule:nonzero;stroke:none"
             d="m 0,0 c 0,-0.106 -2.472,-0.191 -5.521,-0.191 -3.05,0 -5.522,0.085 -5.522,0.191 0,0.105 2.472,0.191 5.522,0.191 C -2.472,0.191 0,0.105 0,0" /></g><g
           transform="translate(137.3551,422.1755)"
           id="g1863"><path
             id="path1865"
             style="fill:#e1e1e1;fill-opacity:1;fill-rule:nonzero;stroke:none"
             d="m 0,0 c 0,-0.106 -2.472,-0.191 -5.521,-0.191 -3.05,0 -5.522,0.085 -5.522,0.191 0,0.105 2.472,0.191 5.522,0.191 C -2.472,0.191 0,0.105 0,0" /></g><g
           transform="translate(137.3551,394.6296)"
           id="g1867"><path
             id="path1869"
             style="fill:#e1e1e1;fill-opacity:1;fill-rule:nonzero;stroke:none"
             d="m 0,0 c 0,-0.105 -2.472,-0.191 -5.521,-0.191 -3.05,0 -5.522,0.086 -5.522,0.191 0,0.106 2.472,0.191 5.522,0.191 C -2.472,0.191 0,0.106 0,0" /></g><g
           transform="translate(137.3551,396.2853)"
           id="g1871"><path
             id="path1873"
             style="fill:#e1e1e1;fill-opacity:1;fill-rule:nonzero;stroke:none"
             d="m 0,0 c 0,-0.105 -2.472,-0.191 -5.521,-0.191 -3.05,0 -5.522,0.086 -5.522,0.191 0,0.106 2.472,0.191 5.522,0.191 C -2.472,0.191 0,0.106 0,0" /></g><g
           transform="translate(132.0114,399.8981)"
           id="g1875"><path
             id="path1877"
             style="fill:#e1e1e1;fill-opacity:1;fill-rule:nonzero;stroke:none"
             d="m 0,0 c -0.105,0 -0.191,3.976 -0.191,8.88 0,4.906 0.086,8.881 0.191,8.881 0.106,0 0.191,-3.975 0.191,-8.881 C 0.191,3.976 0.106,0 0,0" /></g><path
           id="path1879"
           style="fill:#ececec;fill-opacity:1;fill-rule:nonzero;stroke:none"
           d="m 149.494,388.685 h -12.02 v 29.749 h 12.02 z" /><g
           transform="translate(124.7101,428.8625)"
           id="g1881"><path
             id="path1883"
             style="fill:#e1e1e1;fill-opacity:1;fill-rule:nonzero;stroke:none"
             d="m 0,0 c 0,-1.128 -0.915,-2.042 -2.042,-2.042 -1.129,0 -2.043,0.914 -2.043,2.042 0,1.128 0.914,2.042 2.043,2.042 C -0.915,2.042 0,1.128 0,0" /></g><path
           id="path1885"
           style="fill:#e1e1e1;fill-opacity:1;fill-rule:nonzero;stroke:none"
           d="m 123.299,394.313 h -1.263 v 28.932 h 1.263 z" /></g></g><g
       id="g1887"><g
         clip-path="url(#clipPath1893)"
         id="g1889"><g
           transform="translate(401.941,308.2961)"
           id="g1895"><path
             id="path1897"
             style="fill:#f5f5f5;fill-opacity:0;fill-rule:nonzero;stroke:none"
             d="M 0,0 C -17.103,15.465 -42.523,17.398 -65.42,14.665 -88.315,11.93 -105.748,3.982 -128.757,5.5 c -16.68,1.1 -35.227,9.2 -47.354,23.034 -6.308,7.196 -10.172,16.189 -11.626,25.648 -3.589,23.345 -9.435,38.539 -27.954,50.825 -20.432,13.556 -47.676,14.774 -70.542,5.921 -22.865,-8.853 -41.453,-26.883 -53.959,-47.974 -24.584,-41.462 -26.051,-94.845 -7.102,-139.166 18.949,-44.323 56.998,-79.333 101.391,-98.115 44.393,-18.782 94.625,-21.918 141.927,-12.644 34.126,6.689 68.202,20.514 91.332,46.481 17.26,19.377 27.359,44.486 31.104,70.163 C 22.105,-45.337 18.732,-16.937 0,0" /></g></g></g><g
       id="g1899"><g
         clip-path="url(#clipPath1905)"
         id="g1901"><g
           transform="translate(463.9996,21.1862)"
           id="g1907"><path
             id="path1909"
             style="fill:#1a2e35;fill-opacity:1;fill-rule:nonzero;stroke:none"
             d="M 0,0 C 0,-0.144 -95.818,-0.261 -213.989,-0.261 -332.202,-0.261 -428,-0.144 -428,0 c 0,0.144 95.798,0.261 214.011,0.261 C -95.818,0.261 0,0.144 0,0" /></g></g></g><path
       id="path1911"
       style="fill:#bbbbbb;fill-opacity:1;fill-rule:nonzero;stroke:none"
       d="M 84.267,251.407 H 374.473 V 260.7 H 84.267 Z" /><g
       transform="translate(110.6022,20.7116)"
       id="g1913"><path
         id="path1915"
         style="fill:#e1e1e1;fill-opacity:1;fill-rule:nonzero;stroke:none"
         d="m 0,0 -9.421,0.033 v 231.89 H 0 Z" /></g><g
       transform="translate(360.6832,20.7331)"
       id="g1917"><path
         id="path1919"
         style="fill:#e1e1e1;fill-opacity:1;fill-rule:nonzero;stroke:none"
         d="m 0,0 h -9.518 l 0.096,231.901 H 0 Z" /></g><g
       id="g1921"><g
         clip-path="url(#clipPath1927)"
         id="g1923"><g
           transform="translate(196.7282,346.1384)"
           id="g1929"><path
             id="path1931"
             style="fill:#03759c;fill-opacity:1;fill-rule:nonzero;stroke:none"
             d="M 0,0 C 0,0 51.804,-54.27 50.89,-66.314 49.975,-78.358 38.384,-80.97 34.598,-80.503 30.812,-80.036 2.336,-48.317 2.336,-48.317 Z" /></g><g
           id="g1933"><g
             id="g1935" /><g
             id="g1947"><g
               id="g1945"
               opacity="0.399994"
               clip-path="url(#clipPath1939)"><g
                 id="g1943"
                 transform="translate(196.7282,346.1384)"><path
                   id="path1941"
                   style="opacity:1;fill:#03759c;fill-opacity:1;fill-rule:nonzero;stroke:none;stroke-width:0.99975;stroke-miterlimit:4;stroke-dasharray:none"
                   d="M 0,0 C 0,0 51.804001,-54.270001 50.890002,-66.314 49.975001,-78.358 38.384001,-80.97 34.598001,-80.503 30.812001,-80.036 2.336,-48.317 2.336,-48.317 Z" /></g></g></g></g><g
           transform="translate(224.3346,78.0241)"
           id="g1949"><path
             id="path1951"
             style="fill:#ffbf9d;fill-opacity:1;fill-rule:nonzero;stroke:none"
             d="M 0,0 14.042,-46.997 29.829,-38.425 20.86,4.601 Z" /></g><g
           transform="translate(252.2252,60.279)"
           id="g1953"><path
             id="path1955"
             style="fill:#03759c;fill-opacity:1;fill-rule:nonzero;stroke:none"
             d="m 0,0 4.837,-22.243 c 0,0 24.233,-2.555 25.527,-6.578 l -42.791,-10.927 -8.958,34.349 z" /></g><g
           transform="translate(243.3566,36.5114)"
           id="g1957"><path
             id="path1959"
             style="fill:#e1e1e1;fill-opacity:1;fill-rule:nonzero;stroke:none"
             d="m 0,0 c -0.77,-0.438 -1.104,-1.516 -0.699,-2.303 0.406,-0.788 1.498,-1.137 2.277,-0.713 0.777,0.424 1.218,1.705 0.727,2.443 -0.492,0.737 -1.797,1.077 -2.45,0.478" /></g><g
           id="g1961"><g
             id="g1963" /><g
             id="g1975"><g
               id="g1973"
               opacity="0.399994"
               clip-path="url(#clipPath1967)"><g
                 id="g1971"
                 transform="translate(239.798,20.5309)"><path
                   id="path1969"
                   style="fill:#000000;fill-opacity:1;fill-rule:nonzero;stroke:none"
                   d="m 0,0 -0.768,3.498 41.315,9.168 c 0,0 2.118,-0.342 2.244,-1.739 z" /></g></g></g></g><g
           transform="translate(257.6998,38.4304)"
           id="g1977"><path
             id="path1979"
             style="fill:#1a2e35;fill-opacity:1;fill-rule:nonzero;stroke:none"
             d="m 0,0 c 0.047,-0.211 -0.974,-0.572 -1.83,-1.507 -0.882,-0.912 -1.181,-1.952 -1.394,-1.918 -0.203,-0.009 -0.211,1.32 0.847,2.433 C -1.33,0.13 -0.004,0.203 0,0" /></g><g
           transform="translate(262.6627,37.7204)"
           id="g1981"><path
             id="path1983"
             style="fill:#1a2e35;fill-opacity:1;fill-rule:nonzero;stroke:none"
             d="M 0,0 C 0.1,-0.19 -0.715,-0.776 -1.199,-1.842 -1.715,-2.893 -1.649,-3.894 -1.86,-3.938 -2.048,-4.021 -2.505,-2.834 -1.878,-1.521 -1.263,-0.203 -0.056,0.198 0,0" /></g><g
           transform="translate(266.5826,32.9997)"
           id="g1985"><path
             id="path1987"
             style="fill:#1a2e35;fill-opacity:1;fill-rule:nonzero;stroke:none"
             d="M 0,0 C -0.178,-0.094 -0.735,0.877 -0.491,2.158 -0.256,3.441 0.614,4.145 0.747,3.992 0.909,3.851 0.432,3.075 0.247,2.02 0.038,0.97 0.203,0.073 0,0" /></g><g
           transform="translate(256.0358,43.3776)"
           id="g1989"><path
             id="path1991"
             style="fill:#1a2e35;fill-opacity:1;fill-rule:nonzero;stroke:none"
             d="M 0,0 C -0.039,-0.213 -1.071,-0.17 -2.232,-0.551 -3.4,-0.909 -4.219,-1.54 -4.373,-1.389 c -0.159,0.12 0.54,1.122 1.914,1.553 C -1.09,0.605 0.061,0.19 0,0" /></g><g
           transform="translate(254.9772,47.8474)"
           id="g1993"><path
             id="path1995"
             style="fill:#1a2e35;fill-opacity:1;fill-rule:nonzero;stroke:none"
             d="m 0,0 c 0.024,-0.086 -0.769,-0.426 -2.146,-0.536 -0.686,-0.055 -1.515,-0.037 -2.418,0.116 -0.452,0.077 -0.921,0.188 -1.397,0.339 -0.23,0.076 -0.497,0.144 -0.776,0.338 -0.287,0.159 -0.561,0.68 -0.38,1.088 0.135,0.384 0.486,0.625 0.794,0.711 0.312,0.09 0.584,0.092 0.831,0.094 0.507,0.006 0.993,-0.038 1.45,-0.117 C -3.13,1.87 -2.346,1.569 -1.735,1.241 -0.508,0.575 0.03,-0.119 -0.03,-0.178 -0.107,-0.271 -0.758,0.26 -1.962,0.761 -2.562,1.01 -3.306,1.235 -4.148,1.35 -4.57,1.404 -5.015,1.43 -5.475,1.415 -5.959,1.418 -6.345,1.323 -6.41,1.092 -6.433,1.004 -6.431,0.972 -6.302,0.863 c 0.13,-0.096 0.344,-0.17 0.57,-0.246 0.441,-0.15 0.877,-0.267 1.297,-0.358 0.841,-0.18 1.62,-0.25 2.275,-0.265 C -0.847,-0.035 -0.025,0.114 0,0" /></g><g
           transform="translate(254.7809,47.4782)"
           id="g1997"><path
             id="path1999"
             style="fill:#1a2e35;fill-opacity:1;fill-rule:nonzero;stroke:none"
             d="m 0,0 c -0.065,-0.052 -0.671,0.592 -1.094,1.926 -0.207,0.661 -0.344,1.493 -0.306,2.421 0.022,0.463 0.088,0.948 0.213,1.44 0.143,0.486 0.304,1.131 1.091,1.431 C 0.323,7.342 0.76,7.102 0.952,6.849 1.167,6.596 1.259,6.354 1.372,6.119 1.579,5.64 1.694,5.147 1.742,4.677 1.841,3.731 1.661,2.878 1.393,2.229 0.839,0.906 0.031,0.434 -0.005,0.5 -0.101,0.588 0.524,1.177 0.892,2.406 1.073,3.012 1.177,3.776 1.056,4.593 0.997,5 0.883,5.418 0.7,5.821 0.518,6.259 0.253,6.582 0.095,6.492 -0.119,6.441 -0.394,6.006 -0.476,5.599 -0.598,5.159 -0.672,4.722 -0.71,4.302 -0.78,3.46 -0.709,2.689 -0.579,2.057 -0.317,0.786 0.105,0.061 0,0" /></g><g
           transform="translate(186.1964,212.03)"
           id="g2001"><path
             id="path2003"
             style="fill:#1a2e35;fill-opacity:1;fill-rule:nonzero;stroke:none"
             d="M 0,0 C 0.52,-2.08 37.205,-151.751 37.205,-151.751 L 70.518,-141.694 39.067,9.907 Z" /></g><g
           transform="translate(181.2941,403.2512)"
           id="g2005"><path
             id="path2007"
             style="fill:#ffbf9d;fill-opacity:1;fill-rule:nonzero;stroke:none"
             d="m 0,0 -5.822,-44.719 c -0.99,-7.605 4.585,-14.49 12.229,-15.104 7.134,-0.572 13.462,4.563 14.379,11.661 0.435,3.367 0.804,6.174 0.872,6.516 0,0 11.523,-0.411 13.812,10.75 1.106,5.393 2.48,16.687 3.604,26.919 1.208,10.988 -6.239,21.059 -17.095,23.145 l -1.08,0.208 C 9.13,20.934 1.231,11.808 0,0" /></g><g
           transform="translate(203.0011,361.7634)"
           id="g2009"><path
             id="path2011"
             style="fill:#ff9a6c;fill-opacity:1;fill-rule:nonzero;stroke:none"
             d="m 0,0 c 0,0 -7.181,0.784 -13.788,6.949 0,0 1.9,-8.714 13.257,-9.852 z" /></g><g
           transform="translate(217.1705,392.9543)"
           id="g2013"><path
             id="path2015"
             style="fill:#1a2e35;fill-opacity:1;fill-rule:nonzero;stroke:none"
             d="m 0,0 c -0.132,-0.849 -0.961,-1.437 -1.851,-1.315 -0.887,0.122 -1.502,0.907 -1.369,1.756 0.132,0.85 0.96,1.439 1.848,1.318 C -0.482,1.637 0.132,0.85 0,0" /></g><g
           transform="translate(217.2633,394.8791)"
           id="g2017"><path
             id="path2019"
             style="fill:#1a2e35;fill-opacity:1;fill-rule:nonzero;stroke:none"
             d="m 0,0 c -0.238,-0.17 -1.276,0.958 -2.997,1.284 -1.712,0.351 -3.145,-0.291 -3.29,-0.045 -0.074,0.111 0.2,0.448 0.826,0.742 0.617,0.295 1.614,0.505 2.684,0.294 1.07,-0.212 1.895,-0.779 2.335,-1.282 C 0.009,0.486 0.116,0.075 0,0" /></g><g
           transform="translate(199.8751,395.4064)"
           id="g2021"><path
             id="path2023"
             style="fill:#1a2e35;fill-opacity:1;fill-rule:nonzero;stroke:none"
             d="m 0,0 c -0.132,-0.849 -0.961,-1.437 -1.85,-1.315 -0.888,0.121 -1.503,0.907 -1.37,1.757 0.132,0.849 0.961,1.438 1.849,1.317 C -0.481,1.637 0.132,0.85 0,0" /></g><g
           transform="translate(200.0719,397.5778)"
           id="g2025"><path
             id="path2027"
             style="fill:#1a2e35;fill-opacity:1;fill-rule:nonzero;stroke:none"
             d="M 0,0 C -0.238,-0.17 -1.278,0.958 -2.997,1.284 -4.71,1.634 -6.142,0.992 -6.288,1.239 -6.361,1.35 -6.089,1.687 -5.461,1.981 -4.844,2.275 -3.847,2.485 -2.777,2.275 -1.708,2.063 -0.882,1.496 -0.442,0.993 0.007,0.486 0.115,0.075 0,0" /></g><g
           transform="translate(203.7374,383.2248)"
           id="g2029"><path
             id="path2031"
             style="fill:#1a2e35;fill-opacity:1;fill-rule:nonzero;stroke:none"
             d="M 0,0 C 0.011,0.1 1.115,0.079 2.889,-0.033 3.337,-0.072 3.769,-0.065 3.9,0.221 4.065,0.518 3.972,1.026 3.858,1.578 3.649,2.72 3.431,3.917 3.202,5.17 2.314,10.276 1.762,14.441 1.967,14.475 2.173,14.509 3.061,10.398 3.948,5.292 4.156,4.035 4.356,2.836 4.545,1.69 4.615,1.159 4.792,0.538 4.441,-0.077 4.26,-0.382 3.893,-0.558 3.597,-0.58 3.298,-0.611 3.051,-0.569 2.831,-0.54 1.07,-0.299 -0.012,-0.099 0,0" /></g><g
           transform="translate(201.2501,401.0778)"
           id="g2033"><path
             id="path2035"
             style="fill:#1a2e35;fill-opacity:1;fill-rule:nonzero;stroke:none"
             d="M 0,0 C -0.26,-0.435 -1.934,0.117 -3.997,0.261 -6.058,0.448 -7.798,0.17 -7.985,0.64 c -0.081,0.224 0.287,0.609 1.032,0.935 0.739,0.327 1.861,0.556 3.098,0.458 1.236,-0.1 2.308,-0.506 2.985,-0.946 C -0.187,0.647 0.115,0.208 0,0" /></g><g
           transform="translate(218.0553,401.1345)"
           id="g2037"><path
             id="path2039"
             style="fill:#1a2e35;fill-opacity:1;fill-rule:nonzero;stroke:none"
             d="m 0,0 c -0.377,-0.333 -1.483,0.301 -2.904,0.593 -1.41,0.343 -2.68,0.243 -2.88,0.705 -0.083,0.222 0.182,0.577 0.78,0.845 0.59,0.269 1.516,0.402 2.489,0.185 C -1.542,2.109 -0.762,1.592 -0.344,1.097 0.082,0.599 0.17,0.165 0,0" /></g><g
           transform="translate(180.6154,394.7922)"
           id="g2041"><path
             id="path2043"
             style="fill:#ffbf9d;fill-opacity:1;fill-rule:nonzero;stroke:none"
             d="m 0,0 c -0.175,0.119 -7.25,3.751 -8.476,-3.944 -1.226,-7.695 6.753,-7.339 6.801,-7.12 C -1.626,-10.846 0,0 0,0" /></g><g
           transform="translate(177.0543,387.0178)"
           id="g2045"><path
             id="path2047"
             style="fill:#ff9a6c;fill-opacity:1;fill-rule:nonzero;stroke:none"
             d="m 0,0 c -0.03,0.03 -0.149,-0.072 -0.392,-0.14 -0.237,-0.066 -0.628,-0.075 -1.005,0.139 -0.766,0.428 -1.245,1.828 -1.061,3.22 0.092,0.704 0.345,1.347 0.681,1.86 0.325,0.525 0.752,0.861 1.173,0.868 C -0.182,5.977 0.068,5.686 0.128,5.454 0.197,5.222 0.124,5.076 0.162,5.057 0.181,5.034 0.348,5.159 0.336,5.487 0.329,5.645 0.268,5.841 0.111,6.018 -0.05,6.197 -0.31,6.317 -0.6,6.332 -1.199,6.385 -1.82,5.924 -2.19,5.361 -2.592,4.801 -2.893,4.081 -2.996,3.291 -3.194,1.732 -2.631,0.155 -1.57,-0.344 -1.052,-0.571 -0.574,-0.48 -0.312,-0.336 -0.043,-0.184 0.025,-0.018 0,0" /></g><g
           transform="translate(176.4098,395.8693)"
           id="g2049"><path
             id="path2051"
             style="fill:#1a2e35;fill-opacity:1;fill-rule:nonzero;stroke:none"
             d="m 0,0 c 1.221,0.058 3.032,-1.406 3.319,-2.594 0.287,-1.188 0.159,-2.447 0.445,-3.635 0.285,-1.188 1.216,-2.392 2.438,-2.34 0.841,0.036 1.563,0.68 1.929,1.439 0.366,0.758 0.443,1.621 0.497,2.462 0.236,3.658 0.166,7.345 0.714,10.97 0.548,3.624 1.779,7.263 4.257,9.965 2.478,2.701 6.38,4.288 9.913,3.309 2.341,-0.649 4.282,-2.307 6.58,-3.092 2.724,-0.931 5.874,-0.511 8.261,1.099 0.081,0.054 0.234,0.133 0.417,0.22 0.846,0.404 1.367,1.322 1.195,2.244 -0.059,0.314 -0.155,0.608 -0.311,0.819 -3.852,5.233 -12.061,8.066 -18.549,7.698 C 14.618,28.196 7.978,24.942 4.2,19.655 0.422,14.368 -0.338,6.15 0,0" /></g><g
           transform="translate(207.2003,378.0114)"
           id="g2053"><path
             id="path2055"
             style="fill:#1a2e35;fill-opacity:1;fill-rule:nonzero;stroke:none"
             d="M 0,0 C -0.049,-0.135 -1.142,0.144 -2.439,0.622 -3.737,1.1 -4.749,1.597 -4.699,1.731 -4.649,1.867 -3.557,1.588 -2.259,1.11 -0.962,0.632 0.05,0.135 0,0" /></g><g
           transform="translate(215.5582,369.3845)"
           id="g2057"><path
             id="path2059"
             style="fill:#ff9a6c;fill-opacity:1;fill-rule:nonzero;stroke:none"
             d="m 0,0 c 0.051,-0.013 -0.148,-0.893 -0.952,-2.08 -0.786,-1.188 -2.248,-2.594 -4.177,-3.604 -1.929,-1.01 -3.841,-1.497 -5.213,-1.78 -1.379,-0.278 -2.243,-0.361 -2.256,-0.295 -0.015,0.075 0.827,0.287 2.17,0.653 1.339,0.372 3.193,0.907 5.055,1.882 1.861,0.975 3.291,2.272 4.124,3.361 C -0.402,-0.778 -0.083,0.036 0,0" /></g><g
           transform="translate(210.1413,363.6721)"
           id="g2061"><path
             id="path2063"
             style="fill:#ff9a6c;fill-opacity:1;fill-rule:nonzero;stroke:none"
             d="m 0,0 c -2.708,-1.355 -4.703,-5.039 -6.424,-7.426 -0.526,-0.73 -1.068,-1.495 -1.215,-2.383 -0.156,-0.942 0.152,-1.894 0.484,-2.789 0.494,-1.333 1.051,-2.64 1.608,-3.948 0.158,-0.371 0.369,-0.789 0.763,-0.879 0.5,-0.114 0.928,0.379 1.133,0.849 0.509,1.17 0.46,2.495 0.633,3.76 0.175,1.264 0.697,2.63 1.858,3.16" /></g><g
           transform="translate(214.422,353.6867)"
           id="g2065"><path
             id="path2067"
             style="fill:#ffbf9d;fill-opacity:1;fill-rule:nonzero;stroke:none"
             d="m 0,0 -2.636,1.968 c -0.332,0.271 -0.82,0.229 -1.101,-0.094 l -1.4,-1.618 C -5.14,0.252 -5.141,0.247 -5.138,0.242 L -4.402,-3.85 C -3.541,-9.098 -7.43,-8.279 -7.43,-8.279 l -0.309,1.004 -1.71,6.4 c -0.344,3.054 -0.101,3.416 1.385,5.628 l 3.261,4.661 c 0.677,1.008 1.951,1.421 3.09,1.001 4.678,-1.727 14.772,-4.856 15.909,-8.82 2.072,-7.225 3.742,-25.652 3.771,-25.98 l 0.001,-0.007 -14.245,-1.278 c 0,0 0,-0.008 0,0 l 0.067,12.296 c 0,0 -2.068,1.204 -2.677,3.374 C 0.503,-7.83 0,0 0,0" /></g><g
           transform="translate(224.2912,351.278)"
           id="g2069"><path
             id="path2071"
             style="fill:#ff9a6c;fill-opacity:1;fill-rule:nonzero;stroke:none"
             d="m 0,0 c 0.022,-0.024 -0.152,-0.247 -0.542,-0.577 -0.392,-0.318 -1.014,-0.774 -1.94,-0.983 -0.462,-0.099 -0.994,-0.12 -1.545,0.011 -0.545,0.128 -1.125,0.44 -1.529,0.947 -0.835,1.008 -0.954,2.427 -1.698,3.458 -0.378,0.47 -0.947,0.86 -1.468,1.203 -0.531,0.344 -1.07,0.643 -1.594,0.891 -0.51,0.224 -1.077,0.503 -1.461,0.413 -0.439,-0.106 -0.834,-0.407 -1.162,-0.688 -1.292,-1.196 -1.999,-2.09 -2.073,-2.016 -0.027,0.024 0.128,0.255 0.429,0.659 0.305,0.4 0.737,0.988 1.397,1.63 0.335,0.311 0.724,0.666 1.313,0.836 0.152,0.035 0.313,0.048 0.484,0.027 0.151,-0.026 0.296,-0.06 0.436,-0.104 0.283,-0.087 0.559,-0.196 0.836,-0.32 0.554,-0.248 1.113,-0.546 1.67,-0.898 0.553,-0.364 1.123,-0.724 1.612,-1.323 0.848,-1.225 0.942,-2.609 1.652,-3.465 0.674,-0.877 1.814,-1.038 2.632,-0.9 0.847,0.144 1.474,0.525 1.888,0.786 C -0.247,-0.143 -0.026,0.029 0,0" /></g><g
           transform="translate(222.7106,346.9421)"
           id="g2073"><path
             id="path2075"
             style="fill:#ff9a6c;fill-opacity:1;fill-rule:nonzero;stroke:none"
             d="M 0,0 C -0.022,-0.137 -1.85,0.061 -4.019,0.69 -6.19,1.314 -7.841,2.12 -7.787,2.248 -7.731,2.386 -6.015,1.805 -3.874,1.19 -1.736,0.57 0.026,0.146 0,0" /></g><g
           transform="translate(217.6354,353.6276)"
           id="g2077"><path
             id="path2079"
             style="fill:#ffbf9d;fill-opacity:1;fill-rule:nonzero;stroke:none"
             d="m 0,0 c -3.735,-0.008 -4.171,0.172 -8.404,-0.059 -0.63,-0.034 -1.272,-0.071 -1.86,-0.3 -0.588,-0.229 -1.123,-0.686 -1.279,-1.297 -0.295,-1.158 0.874,-2.215 2.04,-2.479 1.165,-0.264 2.399,-0.059 3.562,-0.329 1.775,-0.412 3.638,-1.26 4.688,-2.75 2.435,-3.458 4.994,-1.795 6.658,-3.029 L 9.768,-7.487 8.227,-1.044 0,0" /></g><g
           transform="translate(223.421,343.3849)"
           id="g2081"><path
             id="path2083"
             style="fill:#ff9a6c;fill-opacity:1;fill-rule:nonzero;stroke:none"
             d="m 0,0 c -0.031,-0.051 -0.387,0.27 -1.194,0.369 -0.777,0.153 -2.038,-0.042 -3.455,0.607 -0.694,0.325 -1.353,0.876 -1.907,1.568 -0.523,0.717 -1.098,1.345 -1.923,1.837 -0.8,0.494 -1.74,0.859 -2.744,1.104 -0.978,0.273 -2.063,0.139 -3.225,0.279 -1.163,0.119 -2.362,0.799 -2.733,1.986 -0.178,0.596 0.022,1.262 0.415,1.678 0.382,0.429 0.899,0.681 1.398,0.804 1.016,0.227 1.929,0.174 2.795,0.228 0.866,0.028 1.675,0.039 2.412,0.026 1.476,-0.029 2.66,-0.104 3.481,-0.137 0.821,-0.039 1.275,-0.069 1.275,-0.106 0,-0.035 -0.454,-0.073 -1.277,-0.097 -0.822,-0.029 -2.016,-0.011 -3.479,-0.028 -0.732,-0.011 -1.533,-0.043 -2.393,-0.089 -0.853,-0.069 -1.809,-0.046 -2.692,-0.261 -0.857,-0.187 -1.721,-0.98 -1.443,-1.883 0.27,-0.877 1.273,-1.513 2.308,-1.605 1.061,-0.134 2.203,10e-4 3.281,-0.3 1.046,-0.263 2.028,-0.653 2.875,-1.192 0.855,-0.512 1.534,-1.286 2.008,-1.976 0.51,-0.666 1.102,-1.186 1.731,-1.505 1.27,-0.643 2.52,-0.525 3.329,-0.739 C -0.745,0.482 -0.442,0.338 -0.256,0.22 -0.076,0.088 0.011,0.014 0,0" /></g><g
           transform="translate(217.2213,356.5466)"
           id="g2085"><path
             id="path2087"
             style="fill:#ff9a6c;fill-opacity:1;fill-rule:nonzero;stroke:none"
             d="m 0,0 c 0.005,0.063 0.274,0.117 0.659,-0.061 0.374,-0.167 0.85,-0.618 0.952,-1.297 0.091,-0.68 -0.24,-1.246 -0.552,-1.511 -0.32,-0.278 -0.593,-0.302 -0.616,-0.242 -0.034,0.069 0.153,0.209 0.343,0.488 0.19,0.272 0.375,0.719 0.309,1.192 -0.069,0.472 -0.371,0.849 -0.63,1.057 C 0.206,-0.158 -0.013,-0.077 0,0" /></g><g
           transform="translate(225.5924,188.9216)"
           id="g2089"><path
             id="path2091"
             style="fill:#ffbf9d;fill-opacity:1;fill-rule:nonzero;stroke:none"
             d="m 0,0 -18.237,-45.533 17.693,-3.108 19.74,39.268 z" /></g><g
           transform="translate(236.3937,157.6784)"
           id="g2093"><path
             id="path2095"
             style="fill:#03759c;fill-opacity:1;fill-rule:nonzero;stroke:none"
             d="m 0,0 -10.048,-20.425 c 0,0 17.385,-17.073 15.896,-21.029 l -40.303,18.061 14.352,32.468 z" /></g><g
           transform="translate(214.6657,144.5847)"
           id="g2097"><path
             id="path2099"
             style="fill:#e1e1e1;fill-opacity:1;fill-rule:nonzero;stroke:none"
             d="m 0,0 c -0.875,0.137 -1.808,-0.499 -1.98,-1.368 -0.172,-0.869 0.466,-1.822 1.339,-1.975 0.873,-0.151 2.016,0.577 2.089,1.46 0.074,0.884 -0.737,1.962 -1.62,1.9" /></g><g
           id="g2101"><g
             id="g2103" /><g
             id="g2115"><g
               id="g2113"
               opacity="0.399994"
               clip-path="url(#clipPath2107)"><g
                 id="g2111"
                 transform="translate(201.9391,134.2858)"><path
                   id="path2109"
                   style="fill:#000000;fill-opacity:1;fill-rule:nonzero;stroke:none"
                   d="m 0,0 1.449,3.277 38.178,-18.581 c 0,0 1.445,-1.585 0.676,-2.758 z" /></g></g></g></g><g
           transform="translate(227.0905,137.1657)"
           id="g2117"><path
             id="path2119"
             style="fill:#1a2e35;fill-opacity:1;fill-rule:nonzero;stroke:none"
             d="m 0,0 c -0.095,-0.193 -1.119,0.158 -2.371,-0.041 -1.257,-0.166 -2.138,-0.795 -2.284,-0.636 -0.165,0.12 0.656,1.165 2.176,1.379 C -0.961,0.93 0.124,0.162 0,0" /></g><g
           transform="translate(230.5338,133.5231)"
           id="g2121"><path
             id="path2123"
             style="fill:#1a2e35;fill-opacity:1;fill-rule:nonzero;stroke:none"
             d="m 0,0 c -0.041,-0.211 -1.043,-0.164 -2.084,-0.696 -1.057,-0.502 -1.629,-1.327 -1.821,-1.231 -0.199,0.052 0.181,1.266 1.488,1.904 C -1.115,0.626 0.08,0.189 0,0" /></g><g
           transform="translate(230.6676,127.3884)"
           id="g2125"><path
             id="path2127"
             style="fill:#1a2e35;fill-opacity:1;fill-rule:nonzero;stroke:none"
             d="M 0,0 C -0.198,0.038 -0.031,1.144 0.958,1.995 1.94,2.854 3.058,2.862 3.068,2.661 3.107,2.45 2.25,2.14 1.449,1.428 0.632,0.736 0.204,-0.068 0,0" /></g><g
           transform="translate(228.8639,142.0749)"
           id="g2129"><path
             id="path2131"
             style="fill:#1a2e35;fill-opacity:1;fill-rule:nonzero;stroke:none"
             d="m 0,0 c -0.163,-0.143 -0.944,0.533 -2.09,0.957 -1.138,0.446 -2.171,0.46 -2.198,0.675 -0.05,0.193 1.121,0.543 2.465,0.026 C -0.477,1.151 0.166,0.111 0,0" /></g><g
           transform="translate(230.8151,146.2331)"
           id="g2133"><path
             id="path2135"
             style="fill:#1a2e35;fill-opacity:1;fill-rule:nonzero;stroke:none"
             d="m 0,0 c -0.034,-0.083 -0.866,0.145 -2.014,0.915 -0.57,0.384 -1.208,0.913 -1.821,1.595 -0.305,0.341 -0.604,0.719 -0.883,1.135 -0.132,0.202 -0.299,0.42 -0.397,0.747 -0.126,0.303 -0.016,0.88 0.379,1.087 0.345,0.217 0.77,0.188 1.064,0.064 C -3.371,5.42 -3.157,5.252 -2.962,5.1 -2.562,4.789 -2.208,4.452 -1.9,4.106 -1.287,3.411 -0.86,2.688 -0.586,2.051 -0.039,0.766 -0.05,-0.112 -0.134,-0.12 -0.252,-0.146 -0.431,0.675 -1.062,1.815 -1.377,2.384 -1.819,3.023 -2.408,3.637 -2.704,3.941 -3.037,4.239 -3.407,4.514 -3.783,4.816 -4.145,4.982 -4.34,4.842 -4.412,4.787 -4.43,4.761 -4.396,4.596 -4.356,4.439 -4.233,4.249 -4.104,4.049 -3.852,3.656 -3.583,3.293 -3.311,2.961 -2.764,2.297 -2.198,1.758 -1.695,1.339 -0.685,0.499 0.051,0.104 0,0" /></g><g
           transform="translate(230.4323,146.0651)"
           id="g2137"><path
             id="path2139"
             style="fill:#1a2e35;fill-opacity:1;fill-rule:nonzero;stroke:none"
             d="M 0,0 C -0.083,0.001 -0.157,0.882 0.342,2.188 0.591,2.836 1,3.572 1.607,4.275 1.912,4.624 2.267,4.963 2.67,5.271 3.085,5.562 3.612,5.967 4.415,5.712 4.82,5.548 5.012,5.089 5.005,4.771 5.017,4.439 4.938,4.193 4.881,3.938 4.744,3.435 4.528,2.977 4.273,2.578 3.762,1.777 3.091,1.222 2.477,0.88 1.221,0.188 0.294,0.321 0.308,0.396 0.287,0.523 1.143,0.596 2.195,1.33 2.714,1.691 3.271,2.226 3.684,2.94 3.891,3.296 4.062,3.694 4.169,4.123 4.298,4.58 4.292,4.997 4.112,5.025 3.914,5.118 3.428,4.948 3.11,4.681 2.741,4.412 2.411,4.116 2.12,3.811 1.541,3.195 1.118,2.548 0.826,1.972 0.241,0.813 0.121,-0.018 0,0" /></g><g
           transform="translate(190.6774,243.5231)"
           id="g2141"><path
             id="path2143"
             style="fill:#1a2e35;fill-opacity:1;fill-rule:nonzero;stroke:none"
             d="m 0,0 56.163,27.5 c 9.883,4.839 21.772,2.615 29.235,-5.472 6.952,-7.53 8.577,-18.552 4.094,-27.768 L 52.229,-82.361 21.061,-72.536 48.47,-14.131 17.636,-37.629 c -8.328,-6.347 -18.488,-9.825 -28.957,-9.915 l -8.075,-0.069 c -13.527,0.564 -25.782,8.141 -32.331,19.992 z" /></g><g
           transform="translate(242.9064,161.1618)"
           id="g2145"><path
             id="path2147"
             style="fill:#375a64;fill-opacity:1;fill-rule:nonzero;stroke:none"
             d="m 0,0 c 0,0 -0.198,0.04 -0.572,0.146 -0.398,0.119 -0.947,0.281 -1.652,0.49 -1.473,0.45 -3.591,1.097 -6.29,1.923 -5.456,1.697 -13.25,4.121 -22.717,7.066 l -0.23,0.071 0.102,0.219 c 5.505,11.762 12.36,26.411 19.777,42.26 2.621,5.579 5.172,11.01 7.593,16.163 l 0.382,-0.311 C -17.75,57.491 -30.406,48.74 -39.747,42.978 c -4.673,-2.872 -8.528,-4.983 -11.302,-6.176 -1.387,-0.592 -2.498,-0.963 -3.275,-1.115 -0.38,-0.112 -0.691,-0.088 -0.888,-0.117 -0.202,-0.013 -0.304,-0.016 -0.304,-0.009 -0.002,0.035 0.414,0.032 1.172,0.214 0.762,0.179 1.855,0.574 3.224,1.188 2.738,1.237 6.558,3.387 11.202,6.292 9.277,5.829 21.891,14.63 36.006,25.178 L -3.1,69.04 -3.53,68.123 C -5.947,62.967 -8.494,57.535 -11.11,51.953 -18.561,36.121 -25.449,21.486 -30.978,9.736 l -0.127,0.29 C -21.66,7.009 -13.885,4.525 -8.442,2.787 -5.758,1.915 -3.651,1.23 -2.187,0.755 -1.489,0.521 -0.946,0.34 -0.553,0.207 -0.185,0.08 0,0 0,0" /></g><g
           transform="translate(249.7057,242.0768)"
           id="g2149"><path
             id="path2151"
             style="fill:#375a64;fill-opacity:1;fill-rule:nonzero;stroke:none"
             d="m 0,0 c 0.102,-0.146 -3.436,-1.907 -6.465,-5.571 -3.077,-3.627 -4.188,-7.419 -4.349,-7.344 -0.056,0.016 0.141,0.975 0.743,2.433 0.597,1.457 1.657,3.39 3.206,5.246 1.554,1.849 3.271,3.232 4.6,4.076 1.33,0.849 2.24,1.212 2.265,1.16" /></g><g
           transform="translate(130.651,133.6628)"
           id="g2153"><path
             id="path2155"
             style="fill:#bbbbbb;fill-opacity:1;fill-rule:nonzero;stroke:none"
             d="m 0,0 h 80.783 c 1.123,0 2.042,-0.894 2.073,-2.016 0.033,-1.168 -0.905,-2.131 -2.073,-2.131 H 0 c -1.146,0 -2.074,0.927 -2.074,2.073 C -2.074,-0.929 -1.146,0 0,0" /></g><g
           transform="translate(200.8078,185.0886)"
           id="g2157"><path
             id="path2159"
             style="fill:#dc3e84;fill-opacity:1;fill-rule:nonzero;stroke:none"
             d="m 0,0 h -63.19 c 0,6.762 5.481,12.243 12.243,12.243 h 38.704 C -5.481,12.243 0,6.762 0,0" /></g><path
           id="path2161"
           style="fill:#e1e1e1;fill-opacity:1;fill-rule:nonzero;stroke:none"
           d="m 202.793,181.375 h -66.664 v 3.714 h 66.664 z" /><g
           transform="translate(142.0631,181.3747)"
           id="g2163"><path
             id="path2165"
             style="fill:#bbbbbb;fill-opacity:1;fill-rule:nonzero;stroke:none"
             d="m 0,0 -16.3,-160.663 h 3.834 L 7.427,0 Z" /></g><g
           transform="translate(196.362,181.3747)"
           id="g2167"><path
             id="path2169"
             style="fill:#bbbbbb;fill-opacity:1;fill-rule:nonzero;stroke:none"
             d="m 0,0 16.292,-160.584 -3.833,-0.02 -19.878,160.543 z" /></g><g
           transform="translate(173.6574,182.7858)"
           id="g2171"><path
             id="path2173"
             style="fill:#e1e1e1;fill-opacity:1;fill-rule:nonzero;stroke:none"
             d="M 0,0 -2.743,-162.069 H -6.677 L -8.393,0.445 Z" /></g><g
           transform="translate(172.3805,358.9318)"
           id="g2175"><path
             id="path2177"
             style="fill:#03759c;fill-opacity:1;fill-rule:nonzero;stroke:none"
             d="M 0,0 3.957,12.021 30.089,-0.072 28.894,-12.793 15.87,-16.493 3.086,-8.66 Z" /></g><g
           transform="translate(138.9503,215.902)"
           id="g2179"><path
             id="path2181"
             style="fill:#03759c;fill-opacity:1;fill-rule:nonzero;stroke:none"
             d="m 0,0 c 0,0 -3.648,2.22 -3.661,7.292 -0.012,4.817 4.298,5.215 4.437,7.881 1.437,27.552 4.556,84.622 6.613,102.632 2.594,22.699 29.187,27.495 29.187,27.495 l 21.958,-5.394 v -1.659 c 7.6,-9.769 10.887,-24.497 10.894,-36.874 L 68.405,35.787 Z" /></g><g
           transform="translate(163.6281,252.6345)"
           id="g2183"><path
             id="path2185"
             style="fill:#1a2e35;fill-opacity:1;fill-rule:nonzero;stroke:none"
             d="m 0,0 c 0.027,-0.023 -0.264,-0.42 -0.814,-1.12 -0.549,-0.702 -1.372,-1.693 -2.413,-2.898 -2.079,-2.41 -5.073,-5.64 -8.587,-8.998 -3.519,-3.356 -6.884,-6.197 -9.389,-8.163 -1.251,-0.983 -2.279,-1.759 -3.005,-2.274 -0.725,-0.518 -1.135,-0.79 -1.157,-0.762 -0.022,0.028 0.347,0.356 1.032,0.922 0.762,0.631 1.735,1.437 2.898,2.4 2.439,2.035 5.755,4.91 9.261,8.253 3.502,3.347 6.528,6.526 8.673,8.868 1.017,1.117 1.866,2.051 2.532,2.783 C -0.372,-0.331 -0.028,0.023 0,0" /></g><g
           id="g2187"><g
             id="g2189" /><g
             id="g2201"><g
               id="g2199"
               opacity="0.199997"
               clip-path="url(#clipPath2193)"><g
                 id="g2197"
                 transform="translate(141.9948,231.1686)"><path
                   id="path2195"
                   style="fill:#000000;fill-opacity:1;fill-rule:nonzero;stroke:none"
                   d="m 0,0 c 0.079,4.153 3.183,7.568 6.26,10.357 3.602,3.264 7.437,6.27 11.467,8.988 0.195,-2.028 -1.182,-3.837 -2.522,-5.37 C 10.706,8.832 5.717,4.119 0.327,-0.079" /></g></g></g></g><g
           transform="translate(180.4279,360.9196)"
           id="g2203"><path
             id="path2205"
             style="fill:#1a2e35;fill-opacity:1;fill-rule:nonzero;stroke:none"
             d="M 0,0 C -0.138,0.042 0.224,1.604 0.808,3.486 1.392,5.37 1.976,6.862 2.114,6.819 2.251,6.776 1.889,5.216 1.305,3.333 0.722,1.45 0.137,-0.042 0,0" /></g><g
           transform="translate(190.6232,364.3298)"
           id="g2207"><path
             id="path2209"
             style="fill:#1a2e35;fill-opacity:1;fill-rule:nonzero;stroke:none"
             d="m 0,0 c 0.14,-0.032 -0.097,-1.585 -0.529,-3.468 -0.433,-1.884 -0.897,-3.384 -1.037,-3.352 -0.141,0.032 0.096,1.585 0.529,3.468 C -0.604,-1.469 -0.14,0.032 0,0" /></g><g
           transform="translate(198.213,360.5407)"
           id="g2211"><path
             id="path2213"
             style="fill:#1a2e35;fill-opacity:1;fill-rule:nonzero;stroke:none"
             d="m 0,0 c 0.144,-0.034 -0.073,-1.431 -0.27,-3.155 -0.203,-1.723 -0.311,-3.133 -0.459,-3.134 -0.14,-0.002 -0.265,1.435 -0.058,3.194 C -0.586,-1.336 -0.135,0.034 0,0" /></g><g
           transform="translate(171.8336,296.3596)"
           id="g2215"><path
             id="path2217"
             style="fill:#fafafa;fill-opacity:1;fill-rule:nonzero;stroke:none"
             d="m 0,0 c 0,-0.036 -0.394,-0.063 -1.107,-0.081 -0.714,-0.018 -1.746,-0.026 -3.021,-0.026 -2.552,0.001 -6.076,0.038 -9.968,0.11 -3.894,0.074 -7.418,0.169 -9.968,0.264 -1.275,0.047 -2.307,0.094 -3.019,0.139 -0.713,0.044 -1.106,0.086 -1.106,0.122 0.001,0.036 0.396,0.063 1.109,0.08 0.714,0.018 1.747,0.027 3.022,0.027 2.551,-0.001 6.075,-0.038 9.967,-0.111 C -10.2,0.452 -6.678,0.356 -4.127,0.261 -2.941,0.207 -1.934,0.16 -1.107,0.122 -0.395,0.078 0,0.036 0,0" /></g><g
           transform="translate(166.2555,304.7487)"
           id="g2219"><path
             id="path2221"
             style="fill:#fafafa;fill-opacity:1;fill-rule:nonzero;stroke:none"
             d="m 0,0 c -0.003,-0.144 -5.015,-0.154 -11.192,-0.022 -6.181,0.132 -11.186,0.355 -11.183,0.5 0.003,0.143 5.014,0.153 11.194,0.021 C -5.003,0.367 0.003,0.144 0,0" /></g><g
           id="g2223"><g
             id="g2225" /><g
             id="g2237"><g
               id="g2235"
               opacity="0.199997"
               clip-path="url(#clipPath2229)"><g
                 id="g2233"
                 transform="translate(156.7545,317.6779)"><path
                   id="path2231"
                   style="fill:#000000;fill-opacity:1;fill-rule:nonzero;stroke:none"
                   d="m 0,0 c 7.989,-17.417 17.773,-33.056 29.147,-48.478 2.93,-3.972 6.067,-7.96 10.302,-10.494 4.236,-2.534 7.038,-1.827 11.263,0.725 -4.725,1.505 -5.968,1.984 -9.983,4.894 -3.959,2.87 -7.215,6.816 -10.093,10.769 -10.013,13.757 -19.763,27.928 -29.777,41.685" /></g></g></g></g><g
           transform="translate(239.9245,292.9103)"
           id="g2239"><path
             id="path2241"
             style="fill:#ffbf9d;fill-opacity:1;fill-rule:nonzero;stroke:none"
             d="M 0,0 C 0.175,1.147 0.359,2.321 0.925,3.334 1.49,4.347 2.526,5.18 3.686,5.167 4.846,5.154 5.968,4.034 5.706,2.904 5.551,2.238 5.005,1.748 4.6,1.197 3.323,-0.54 3.443,-2.89 3.46,-5.045 3.478,-7.2 3.191,-9.646 1.467,-10.939" /></g><g
           transform="translate(160.5812,343.111)"
           id="g2243"><path
             id="path2245"
             style="fill:#03759c;fill-opacity:1;fill-rule:nonzero;stroke:none"
             d="m 0,0 c -8.454,-5.907 -10.298,-17.659 -4.062,-25.873 l 36.541,-48.121 c 7.938,-10.325 22.051,-13.63 33.748,-7.902 9.867,4.831 15.891,15.092 15.3,26.063 L 73.481,-5.229 53.818,-6.452 55.676,-47.663 25.258,-4.436 C 19.499,3.749 8.204,5.733 0,0" /></g><g
           transform="translate(239.339,272.9338)"
           id="g2247"><path
             id="path2249"
             style="fill:#ffbf9d;fill-opacity:1;fill-rule:nonzero;stroke:none"
             d="m 0,0 c -4.836,1.129 -5.657,1.96 -10.493,3.089 -1.44,0.336 -3.288,1.271 -2.643,2.793 0.339,0.798 1.189,1.27 2.053,1.201 1.885,-0.153 4.916,-1.276 6.733,-1.45 0.454,-0.043 0.441,0.414 0.241,0.724 -2.955,0.886 -5.981,1.535 -9.038,1.941 -1.907,0.253 -2.653,2.762 -1.113,3.914 0.195,0.146 1.058,0.404 1.295,0.37 1.936,-0.28 1.936,-0.28 4.003,-0.637 5.797,-1.004 5.028,0.144 5.028,0.144 0.037,0.435 -6.597,1.077 -9.988,1.483 -0.719,0.086 -1.511,0.21 -1.974,0.768 -0.562,0.678 -0.362,1.76 0.23,2.411 0.593,0.652 1.447,1.15 2.328,1.165 3.769,0.065 16.147,-1.311 16.147,-1.311 0,0 1.621,-2.203 1.126,-6.706 C 3.391,4.954 0,0 0,0" /></g><g
           transform="translate(221.8288,259.4255)"
           id="g2251"><path
             id="path2253"
             style="fill:#1a2e35;fill-opacity:1;fill-rule:nonzero;stroke:none"
             d="m 0,0 c 0,0 -0.176,-0.034 -0.523,-0.074 -0.367,-0.038 -0.879,-0.091 -1.539,-0.159 -1.355,-0.124 -3.355,-0.315 -5.944,-0.344 -2.576,-0.003 -5.8,0.129 -9.322,1.29 -3.523,1.164 -7.079,3.626 -10.289,6.963 -3.228,3.332 -6.34,7.337 -9.651,11.643 -3.29,4.325 -6.73,9.001 -10.308,13.951 -3.577,4.95 -7.287,10.179 -11.094,15.626 -1.893,2.732 -3.819,5.512 -5.773,8.333 -0.485,0.708 -0.972,1.418 -1.46,2.131 l -0.691,1.119 c -0.243,0.368 -0.449,0.756 -0.63,1.16 -0.817,1.567 -1.336,3.289 -1.64,5.046 -0.324,1.759 -0.331,3.559 -0.107,5.307 0.08,0.881 0.307,1.733 0.5,2.588 0.278,0.831 0.511,1.676 0.894,2.461 0.318,0.813 0.78,1.551 1.195,2.308 0.499,0.704 0.946,1.445 1.53,2.075 1.081,1.334 2.391,2.446 3.777,3.397 1.386,0.965 2.921,1.655 4.476,2.212 1.583,0.463 3.193,0.846 4.818,0.876 3.241,0.186 6.428,-0.597 9.189,-1.973 2.743,-1.435 5.05,-3.507 6.713,-5.918 1.648,-2.378 3.247,-4.686 4.794,-6.919 3.09,-4.464 5.968,-8.624 8.598,-12.423 5.235,-7.591 9.475,-13.739 12.42,-18.009 1.447,-2.119 2.575,-3.771 3.355,-4.912 0.369,-0.55 0.656,-0.978 0.861,-1.284 0.192,-0.292 0.279,-0.449 0.279,-0.449 0,0 -0.116,0.137 -0.322,0.418 -0.216,0.3 -0.517,0.717 -0.904,1.255 -0.799,1.129 -1.954,2.762 -3.436,4.856 -2.977,4.248 -7.264,10.365 -12.556,17.916 -2.646,3.788 -5.542,7.935 -8.651,12.387 -1.554,2.228 -3.161,4.531 -4.815,6.904 -1.63,2.348 -3.881,4.359 -6.555,5.751 -2.69,1.332 -5.794,2.09 -8.946,1.903 -1.581,-0.03 -3.145,-0.408 -4.683,-0.858 -1.511,-0.545 -3.003,-1.216 -4.35,-2.156 -1.346,-0.926 -2.62,-2.007 -3.668,-3.305 -0.568,-0.612 -1,-1.333 -1.485,-2.017 -0.402,-0.737 -0.851,-1.453 -1.159,-2.243 -0.373,-0.762 -0.598,-1.584 -0.869,-2.391 -0.185,-0.832 -0.407,-1.659 -0.485,-2.516 -0.216,-1.697 -0.21,-3.446 0.105,-5.155 0.296,-1.706 0.799,-3.379 1.593,-4.901 0.747,-1.536 1.775,-2.926 2.742,-4.348 1.952,-2.822 3.874,-5.602 5.764,-8.334 3.801,-5.449 7.501,-10.682 11.065,-15.638 3.566,-4.955 6.991,-9.638 10.263,-13.969 3.291,-4.311 6.384,-8.326 9.571,-11.648 3.17,-3.329 6.658,-5.771 10.119,-6.945 3.464,-1.171 6.663,-1.335 9.228,-1.363 2.578,-0.002 4.579,0.156 5.935,0.247 0.662,0.046 1.175,0.082 1.543,0.107 C -0.18,0.002 0,0 0,0" /></g><g
           transform="translate(218.3488,280.3464)"
           id="g2255"><path
             id="path2257"
             style="fill:#1a2e35;fill-opacity:1;fill-rule:nonzero;stroke:none"
             d="m 0,0 c -0.177,0.023 1.038,3.651 0.288,8.156 -0.685,4.518 -2.967,7.589 -2.806,7.666 0.045,0.033 0.672,-0.67 1.413,-1.994 0.743,-1.319 1.538,-3.293 1.907,-5.59 C 1.164,5.941 1.021,3.818 0.724,2.334 0.43,0.845 0.053,-0.019 0,0" /></g><g
           transform="translate(218.8429,331.2868)"
           id="g2259"><path
             id="path2261"
             style="fill:#1a2e35;fill-opacity:1;fill-rule:nonzero;stroke:none"
             d="m 0,0 c -0.133,-0.039 -0.58,1.152 -0.706,2.703 -0.132,1.55 0.111,2.798 0.248,2.782 C -0.309,5.471 -0.316,4.243 -0.187,2.746 -0.066,1.249 0.144,0.038 0,0" /></g><g
           transform="translate(224.257,331.7912)"
           id="g2263"><path
             id="path2265"
             style="fill:#1a2e35;fill-opacity:1;fill-rule:nonzero;stroke:none"
             d="M 0,0 C -0.131,-0.043 -0.614,1.108 -0.809,2.624 -1.009,4.138 -0.838,5.375 -0.7,5.367 -0.551,5.362 -0.487,4.155 -0.292,2.691 -0.105,1.226 0.143,0.043 0,0" /></g><g
           transform="translate(229.6256,332.9577)"
           id="g2267"><path
             id="path2269"
             style="fill:#1a2e35;fill-opacity:1;fill-rule:nonzero;stroke:none"
             d="m 0,0 c -0.144,-0.007 -0.312,0.979 -0.377,2.203 -0.064,1.225 0,2.223 0.144,2.231 C -0.09,4.441 0.079,3.455 0.143,2.23 0.208,1.006 0.144,0.008 0,0" /></g><g
           transform="translate(196.5182,321.8151)"
           id="g2271"><path
             id="path2273"
             style="fill:#fafafa;fill-opacity:1;fill-rule:nonzero;stroke:none"
             d="m 0,0 c 0.082,-0.118 -6.119,-4.559 -13.848,-9.916 -7.732,-5.36 -14.065,-9.607 -14.146,-9.489 -0.082,0.118 6.117,4.557 13.849,9.917 C -6.416,-4.13 -0.082,0.118 0,0" /></g><g
           transform="translate(191.6779,329.072)"
           id="g2275"><path
             id="path2277"
             style="fill:#fafafa;fill-opacity:1;fill-rule:nonzero;stroke:none"
             d="m 0,0 c 0.02,-0.03 -0.369,-0.327 -1.087,-0.837 -0.805,-0.564 -1.83,-1.284 -3.055,-2.143 -2.582,-1.805 -6.133,-4.318 -9.994,-7.176 -3.862,-2.862 -7.301,-5.526 -9.78,-7.47 -1.179,-0.922 -2.166,-1.693 -2.939,-2.298 -0.698,-0.538 -1.095,-0.823 -1.118,-0.796 -0.024,0.028 0.329,0.366 0.988,0.952 0.657,0.589 1.627,1.419 2.838,2.428 2.422,2.02 5.833,4.736 9.701,7.602 3.868,2.864 7.459,5.334 10.097,7.063 1.319,0.864 2.395,1.55 3.15,2.007 C -0.445,-0.209 -0.02,0.03 0,0" /></g></g></g><path
       id="path2279"
       style="fill:#1a2e35;fill-opacity:1;fill-rule:nonzero;stroke:none"
       d="m 363.765,69.005 h 68.043 v 9.349 h -68.043 z" /><path
       id="path2281"
       style="fill:#63134f;fill-opacity:1;fill-rule:nonzero;stroke:none"
       d="m 363.881,69.121 h 67.81 v 9.117 h -67.81 z m 68.042,-0.233 h -68.274 v 9.582 h 68.274 z" /><g
       transform="translate(370.0739,72.1159)"
       id="g2283"><path
         id="path2285"
         style="fill:#dc3e84;fill-opacity:1;fill-rule:nonzero;stroke:none"
         d="m 0,0 9.794,-48.317 h 36.239 l 9.468,45.206 z" /></g><g
       transform="translate(370.0739,28.3688)"
       id="g2287"><path
         id="path2289"
         style="fill:#63134f;fill-opacity:1;fill-rule:nonzero;stroke:none"
         d="M 0,0 5.224,-7.183 H 49.271 L 55.501,0 Z" /></g><g
       id="g2291"><g
         clip-path="url(#clipPath2297)"
         id="g2293"><g
           transform="translate(395.2311,70.7048)"
           id="g2299"><path
             id="path2301"
             style="fill:#1a2e35;fill-opacity:1;fill-rule:nonzero;stroke:none"
             d="m 0,0 c -0.134,0 -0.305,22.384 -0.383,49.991 -0.078,27.616 -0.032,49.996 0.102,49.997 0.134,0 0.305,-22.38 0.383,-49.996 C 0.18,22.386 0.134,0 0,0" /></g><g
           transform="translate(410.3883,126.7224)"
           id="g2303"><path
             id="path2305"
             style="fill:#1a2e35;fill-opacity:1;fill-rule:nonzero;stroke:none"
             d="m 0,0 c 0.015,-0.008 -0.049,-0.187 -0.183,-0.521 -0.159,-0.38 -0.36,-0.86 -0.607,-1.449 -0.136,-0.319 -0.284,-0.667 -0.443,-1.043 -0.141,-0.394 -0.292,-0.818 -0.454,-1.27 -0.165,-0.458 -0.339,-0.945 -0.525,-1.458 -0.182,-0.517 -0.324,-1.08 -0.503,-1.662 -0.743,-2.32 -1.334,-5.165 -1.903,-8.331 -0.495,-3.182 -0.866,-6.704 -1.053,-10.418 -0.331,-7.434 0.089,-14.175 0.537,-19.031 0.219,-2.429 0.44,-4.392 0.602,-5.748 0.069,-0.634 0.126,-1.152 0.171,-1.562 0.034,-0.359 0.044,-0.548 0.027,-0.551 -0.017,-0.002 -0.059,0.183 -0.124,0.536 -0.068,0.407 -0.155,0.921 -0.262,1.552 -0.218,1.35 -0.492,3.309 -0.755,5.739 -0.537,4.857 -1.013,11.618 -0.68,19.088 0.187,3.731 0.574,7.273 1.096,10.469 0.597,3.181 1.227,6.036 2.017,8.357 0.189,0.582 0.345,1.146 0.539,1.662 0.198,0.512 0.386,0.996 0.563,1.454 0.175,0.449 0.339,0.87 0.493,1.262 0.168,0.381 0.339,0.721 0.484,1.031 0.281,0.576 0.511,1.044 0.692,1.415 C -0.107,-0.157 -0.015,0.007 0,0" /></g><g
           transform="translate(408.649,144.8259)"
           id="g2307"><path
             id="path2309"
             style="fill:#1a2e35;fill-opacity:1;fill-rule:nonzero;stroke:none"
             d="m 0,0 c 0.016,-0.006 -0.06,-0.26 -0.217,-0.737 -0.177,-0.519 -0.412,-1.211 -0.708,-2.082 -0.158,-0.455 -0.332,-0.955 -0.52,-1.499 -0.169,-0.559 -0.352,-1.162 -0.548,-1.809 -0.398,-1.295 -0.86,-2.767 -1.269,-4.423 -0.217,-0.825 -0.446,-1.689 -0.682,-2.588 -0.205,-0.909 -0.418,-1.853 -0.638,-2.83 -0.476,-1.948 -0.818,-4.065 -1.258,-6.276 -0.749,-4.445 -1.41,-9.36 -1.865,-14.545 -0.43,-5.189 -0.617,-10.146 -0.684,-14.656 -0.012,-4.51 0.044,-8.575 0.23,-11.982 0.059,-1.705 0.169,-3.245 0.257,-4.597 0.078,-1.355 0.163,-2.519 0.25,-3.469 0.069,-0.917 0.125,-1.648 0.166,-2.194 0.033,-0.501 0.042,-0.765 0.025,-0.767 -0.017,-0.002 -0.058,0.259 -0.122,0.758 -0.064,0.544 -0.149,1.271 -0.258,2.185 -0.115,0.948 -0.227,2.113 -0.332,3.466 -0.113,1.353 -0.247,2.893 -0.329,4.601 -0.229,3.41 -0.322,7.481 -0.333,12.003 0.041,4.52 0.216,9.491 0.647,14.693 0.457,5.199 1.132,10.128 1.909,14.583 0.452,2.215 0.81,4.335 1.304,6.285 0.231,0.979 0.454,1.924 0.667,2.833 0.248,0.899 0.487,1.762 0.715,2.588 0.433,1.654 0.918,3.124 1.342,4.415 0.21,0.643 0.405,1.243 0.587,1.799 0.203,0.541 0.391,1.038 0.561,1.489 0.332,0.859 0.597,1.542 0.795,2.053 C -0.121,-0.235 -0.016,0.007 0,0" /></g><g
           transform="translate(390.9274,66.7448)"
           id="g2311"><path
             id="path2313"
             style="fill:#1a2e35;fill-opacity:1;fill-rule:nonzero;stroke:none"
             d="m 0,0 c -0.008,0 -0.021,0.089 -0.038,0.262 -0.017,0.201 -0.038,0.455 -0.065,0.77 -0.047,0.713 -0.115,1.705 -0.2,2.964 -0.163,2.611 -0.395,6.327 -0.682,10.903 -0.59,9.205 -1.445,21.922 -2.994,35.906 -0.791,6.992 -1.708,13.633 -2.663,19.653 -0.507,3.005 -0.967,5.865 -1.489,8.525 -0.478,2.668 -0.995,5.14 -1.47,7.396 -0.447,2.262 -0.945,4.286 -1.346,6.073 -0.394,1.789 -0.776,3.319 -1.094,4.569 -0.301,1.225 -0.537,2.191 -0.707,2.884 -0.07,0.31 -0.127,0.558 -0.172,0.754 -0.036,0.171 -0.051,0.259 -0.043,0.261 0.009,0.003 0.039,-0.081 0.091,-0.247 0.057,-0.194 0.129,-0.438 0.219,-0.742 0.191,-0.689 0.457,-1.647 0.795,-2.863 0.346,-1.243 0.754,-2.768 1.174,-4.552 0.427,-1.784 0.95,-3.805 1.418,-6.065 0.497,-2.254 1.034,-4.724 1.53,-7.392 0.54,-2.661 1.015,-5.522 1.535,-8.529 0.979,-6.024 1.912,-12.672 2.704,-19.671 C -1.946,36.86 -1.146,24.132 -0.643,14.92 -0.393,10.313 -0.219,6.584 -0.114,4.006 -0.067,2.745 -0.031,1.752 -0.005,1.037 0.002,0.721 0.007,0.466 0.012,0.265 0.012,0.09 0.009,0.001 0,0" /></g><g
           transform="translate(394.6764,159.9313)"
           id="g2315"><path
             id="path2317"
             style="fill:#63134f;fill-opacity:1;fill-rule:nonzero;stroke:none"
             d="M 0,0 C -0.296,3.172 -3.501,5.564 -6.686,5.597 -9.87,5.63 -12.839,3.72 -14.786,1.2 c -1.948,-2.52 -3.023,-5.596 -3.901,-8.658 -2.145,-7.471 -3.317,-15.32 -2.4,-23.039 0.917,-7.719 4.048,-15.318 9.587,-20.772 0.9,-0.886 2.067,-1.773 3.303,-1.509 0.676,0.144 1.229,0.613 1.743,1.077 10.88,9.828 17.163,24.55 16.732,39.206 C 10.192,-9.56 9.807,-6.505 8.182,-4.06 6.556,-1.614 2.768,0.982 0,0" /></g><g
           transform="translate(370.8951,185.3317)"
           id="g2319"><path
             id="path2321"
             style="fill:#63134f;fill-opacity:1;fill-rule:nonzero;stroke:none"
             d="m 0,0 c -1.495,-2.708 -2.99,-5.416 -4.486,-8.123 -0.105,-0.19 -0.243,-0.402 -0.458,-0.42 -0.236,-0.02 -0.412,0.203 -0.541,0.401 -3.953,6.068 -7.907,12.134 -11.86,18.201 l 2.734,1.548 z" /></g><g
           transform="matrix(1.3073478,0,0,1,-108.66285,0)"
           id="g2323"><g
             id="g2325" /><g
             id="g2337"><g
               id="g2335"
               opacity="0.199997"
               clip-path="url(#clipPath2329)"><g
                 id="g2333"
                 transform="translate(370.8951,185.3317)"><path
                   id="path2331"
                   style="fill:#000000;fill-opacity:1;fill-rule:nonzero;stroke:none;stroke-width:0.87459"
                   d="M -4.0776814,0 C -5.221218,-2.708 -6.3647545,-5.416 -7.509056,-8.123 -7.589371,-8.313 -7.6949285,-8.525 -7.8593835,-8.543 -8.0399017,-8.563 -8.1745254,-8.34 -8.2731984,-8.142 -11.296877,-2.074 -14.321321,3.992 -17.345,10.059 l 2.091257,1.548 z" /></g></g></g></g><g
           transform="translate(394.9498,170.6931)"
           id="g2339"><path
             id="path2341"
             style="fill:#63134f;fill-opacity:1;fill-rule:nonzero;stroke:none"
             d="m 0,0 -40.453,23.871 c -0.413,0.244 -0.86,0.531 -0.985,0.994 -0.162,0.599 0.288,1.176 0.719,1.621 5.565,5.74 13.646,9.067 21.619,8.493 C -11.127,34.405 -3.459,29.8 0.444,22.824 4.349,15.848 4.478,6.622 0,0" /></g><g
           transform="translate(360.3268,202.1843)"
           id="g2343"><path
             id="path2345"
             style="fill:#dc3e84;fill-opacity:1;fill-rule:nonzero;stroke:none"
             d="m 0,0 c -0.001,0.017 0.181,0.039 0.53,0.066 0.349,0.018 0.864,0.08 1.529,0.074 1.329,0.032 3.261,-0.055 5.613,-0.447 2.349,-0.385 5.109,-1.141 7.993,-2.427 2.883,-1.281 5.864,-3.133 8.581,-5.568 2.694,-2.461 4.836,-5.244 6.397,-7.984 1.567,-2.742 2.594,-5.413 3.212,-7.713 0.624,-2.301 0.903,-4.215 1.003,-5.54 0.074,-0.661 0.044,-0.831 0.062,-1.18 0.008,-0.349 -0.295,-0.882 -0.313,-0.883 -0.043,-0.002 0.224,0.731 0.064,2.042 -0.157,1.312 -0.486,3.203 -1.146,5.467 -1.278,4.505 -4.248,10.579 -9.604,15.432 -5.36,4.844 -11.699,7.193 -16.31,8.017 -2.319,0.43 -4.233,0.57 -5.553,0.595 C 0.736,-0.021 0.002,-0.043 0,0" /></g><g
           transform="translate(389.4742,187.1696)"
           id="g2347"><path
             id="path2349"
             style="fill:#dc3e84;fill-opacity:1;fill-rule:nonzero;stroke:none"
             d="m 0,0 c 0.023,-0.062 -0.756,-0.422 -2.045,-0.93 -1.289,-0.507 -3.09,-1.157 -5.104,-1.798 -2.016,-0.639 -3.862,-1.148 -5.207,-1.477 -1.346,-0.329 -2.19,-0.483 -2.207,-0.421 -0.017,0.066 0.795,0.339 2.115,0.751 1.491,0.466 3.23,1.01 5.152,1.61 1.915,0.619 3.65,1.178 5.136,1.659 C -0.845,-0.183 -0.023,0.064 0,0" /></g><g
           transform="translate(383.1041,204.2809)"
           id="g2351"><path
             id="path2353"
             style="fill:#dc3e84;fill-opacity:1;fill-rule:nonzero;stroke:none"
             d="M 0,0 C 0.131,0.012 0.417,-2.005 0.479,-4.513 0.544,-7.021 0.359,-9.05 0.229,-9.044 0.092,-9.039 0.06,-7.016 -0.006,-4.525 -0.067,-2.034 -0.137,-0.012 0,0" /></g><g
           transform="translate(354.1432,195.0173)"
           id="g2355"><path
             id="path2357"
             style="fill:#dc3e84;fill-opacity:1;fill-rule:nonzero;stroke:none"
             d="m 0,0 c -0.019,0.062 1.101,0.468 2.938,1.034 1.838,0.567 4.398,1.283 7.251,1.972 2.855,0.686 5.46,1.214 7.354,1.547 1.894,0.333 3.076,0.48 3.088,0.417 C 20.643,4.901 19.484,4.635 17.61,4.216 15.737,3.799 13.149,3.22 10.303,2.534 7.457,1.848 4.891,1.186 3.032,0.704 1.174,0.223 0.02,-0.066 0,0" /></g><g
           transform="translate(377.8864,166.8122)"
           id="g2359"><path
             id="path2361"
             style="fill:#63134f;fill-opacity:1;fill-rule:nonzero;stroke:none"
             d="m 0,0 c -3.479,2.639 -7.159,3.158 -11.521,2.985 -4.364,-0.172 -8.611,-1.502 -12.61,-3.254 -6.821,-2.987 -13.233,-7.391 -17.309,-13.624 -4.076,-6.232 -5.495,-14.483 -2.443,-21.276 0.304,-0.677 0.699,-1.385 1.382,-1.677 0.718,-0.307 1.54,-0.067 2.283,0.175 7.758,2.531 15.572,5.086 22.705,9.05 7.134,3.963 13.627,9.473 17.455,16.68 0.918,1.729 1.687,3.583 1.837,5.535 C 1.93,-3.453 1.39,-1.378 0,0" /></g><g
           transform="translate(377.9547,167.6306)"
           id="g2363"><path
             id="path2365"
             style="fill:#dc3e84;fill-opacity:1;fill-rule:nonzero;stroke:none"
             d="M 0,0 C 0.005,-0.016 -0.187,-0.094 -0.559,-0.227 -0.978,-0.371 -1.517,-0.556 -2.184,-0.785 -2.543,-0.905 -2.936,-1.036 -3.361,-1.178 -3.788,-1.331 -4.242,-1.522 -4.736,-1.714 -5.718,-2.11 -6.857,-2.508 -8.058,-3.09 -8.665,-3.366 -9.3,-3.655 -9.96,-3.956 c -0.659,-0.305 -1.318,-0.68 -2.016,-1.034 -1.406,-0.692 -2.829,-1.574 -4.343,-2.469 -2.975,-1.88 -6.122,-4.144 -9.187,-6.812 -3.038,-2.7 -5.684,-5.535 -7.929,-8.246 -1.081,-1.388 -2.137,-2.687 -3.002,-3.995 -0.441,-0.646 -0.896,-1.252 -1.282,-1.867 -0.383,-0.616 -0.75,-1.209 -1.101,-1.776 -0.731,-1.116 -1.27,-2.197 -1.788,-3.119 -0.253,-0.465 -0.5,-0.892 -0.707,-1.296 -0.195,-0.404 -0.374,-0.777 -0.539,-1.118 -0.313,-0.631 -0.565,-1.142 -0.762,-1.541 -0.179,-0.349 -0.28,-0.531 -0.296,-0.524 -0.016,0.007 0.057,0.2 0.207,0.564 0.176,0.409 0.401,0.933 0.68,1.582 0.153,0.347 0.321,0.728 0.503,1.139 0.195,0.411 0.431,0.846 0.673,1.32 0.498,0.938 1.019,2.036 1.734,3.169 0.345,0.575 0.706,1.176 1.081,1.802 0.381,0.624 0.83,1.239 1.267,1.895 0.856,1.324 1.907,2.64 2.985,4.047 2.24,2.744 4.896,5.609 7.956,8.328 3.086,2.687 6.264,4.957 9.272,6.829 1.532,0.89 2.971,1.765 4.394,2.444 0.706,0.35 1.372,0.718 2.04,1.016 0.668,0.292 1.31,0.573 1.926,0.843 1.215,0.564 2.369,0.941 3.364,1.316 0.5,0.179 0.961,0.358 1.393,0.499 0.432,0.128 0.831,0.246 1.195,0.355 0.68,0.193 1.229,0.35 1.656,0.472 C -0.206,-0.029 -0.004,0.017 0,0" /></g><g
           transform="translate(350.7731,152.9138)"
           id="g2367"><path
             id="path2369"
             style="fill:#dc3e84;fill-opacity:1;fill-rule:nonzero;stroke:none"
             d="m 0,0 c 0.038,-0.129 -3.752,-1.35 -8.463,-2.728 -4.713,-1.377 -8.562,-2.389 -8.599,-2.261 -0.039,0.129 3.75,1.349 8.463,2.727 C -3.888,-0.885 -0.037,0.128 0,0" /></g><g
           transform="translate(350.4254,134.237)"
           id="g2371"><path
             id="path2373"
             style="fill:#dc3e84;fill-opacity:1;fill-rule:nonzero;stroke:none"
             d="m 0,0 c -0.065,-0.001 -0.142,1.007 -0.187,2.637 -0.043,1.631 -0.051,3.884 0.018,6.372 0.07,2.488 0.203,4.738 0.339,6.363 0.136,1.626 0.267,2.627 0.333,2.622 C 0.571,17.989 0.56,16.98 0.512,15.353 0.457,13.566 0.39,11.396 0.315,8.995 0.256,6.595 0.201,4.424 0.156,2.637 0.113,1.009 0.068,0.001 0,0" /></g><g
           transform="translate(366.4235,142.3874)"
           id="g2375"><path
             id="path2377"
             style="fill:#dc3e84;fill-opacity:1;fill-rule:nonzero;stroke:none"
             d="m 0,0 c -0.133,-0.009 -0.559,4.57 -0.95,10.228 -0.391,5.658 -0.6,10.251 -0.466,10.261 0.133,0.009 0.559,-4.569 0.95,-10.228 C -0.075,4.604 0.134,0.01 0,0" /></g><g
           transform="translate(346.5094,163.321)"
           id="g2379"><path
             id="path2381"
             style="fill:#dc3e84;fill-opacity:1;fill-rule:nonzero;stroke:none"
             d="m 0,0 c 0.003,0.066 1.04,0.093 2.713,0.081 1.673,-0.011 3.981,-0.06 6.53,-0.144 2.55,-0.084 4.858,-0.188 6.528,-0.288 1.669,-0.098 2.702,-0.193 2.701,-0.26 -0.001,-0.067 -1.036,-0.093 -2.709,-0.082 -1.673,0.011 -3.984,0.06 -6.535,0.145 C 6.676,-0.464 4.367,-0.36 2.697,-0.261 1.027,-0.162 -0.003,-0.067 0,0" /></g><g
           transform="translate(384.9117,107.5993)"
           id="g2383"><path
             id="path2385"
             style="fill:#dc3e84;fill-opacity:1;fill-rule:nonzero;stroke:none"
             d="m 0,0 c -0.017,-0.001 -0.036,0.186 -0.058,0.541 -0.019,0.407 -0.043,0.923 -0.071,1.556 -0.061,1.351 -0.075,3.31 -0.023,5.729 0.044,2.419 0.208,5.298 0.499,8.486 0.315,3.185 0.771,6.677 1.424,10.316 0.67,3.637 1.474,7.069 2.302,10.165 0.851,3.091 1.712,5.848 2.525,8.133 0.803,2.288 1.507,4.121 2.042,5.369 0.25,0.585 0.454,1.059 0.615,1.435 C 9.4,52.057 9.484,52.226 9.5,52.219 9.516,52.213 9.462,52.033 9.346,51.695 9.207,51.312 9.031,50.826 8.815,50.229 8.337,48.963 7.684,47.115 6.923,44.82 6.154,42.527 5.33,39.769 4.505,36.683 3.704,33.591 2.916,30.168 2.248,26.544 1.598,22.919 1.13,19.441 0.791,16.27 0.478,13.095 0.278,10.228 0.19,7.815 0.095,5.404 0.057,3.45 0.06,2.1 0.051,1.466 0.045,0.951 0.04,0.543 0.029,0.187 0.017,0 0,0" /></g><g
           transform="translate(387.0455,134.0856)"
           id="g2387"><path
             id="path2389"
             style="fill:#dc3e84;fill-opacity:1;fill-rule:nonzero;stroke:none"
             d="m 0,0 c 0.045,-0.047 -0.567,-0.728 -1.614,-1.771 -1.046,-1.043 -2.532,-2.445 -4.228,-3.932 -1.696,-1.486 -3.28,-2.776 -4.452,-3.678 -1.171,-0.901 -1.926,-1.419 -1.967,-1.367 -0.043,0.054 0.637,0.665 1.75,1.633 1.243,1.079 2.719,2.36 4.35,3.776 1.616,1.432 3.08,2.727 4.312,3.818 C -0.744,-0.544 -0.048,0.049 0,0" /></g><g
           transform="translate(399.8502,123.7712)"
           id="g2391"><path
             id="path2393"
             style="fill:#dc3e84;fill-opacity:1;fill-rule:nonzero;stroke:none"
             d="m 0,0 c -0.059,-0.037 -0.7,0.883 -1.719,2.38 -1.106,1.614 -2.479,3.618 -3.997,5.834 -1.551,2.195 -2.953,4.18 -4.082,5.777 -1.049,1.476 -1.688,2.397 -1.634,2.439 0.051,0.04 0.787,-0.808 1.91,-2.234 1.121,-1.425 2.622,-3.432 4.204,-5.705 1.58,-2.272 2.941,-4.378 3.887,-5.925 C -0.484,1.019 0.055,0.034 0,0" /></g><g
           transform="translate(393.1422,156.2097)"
           id="g2395"><path
             id="path2397"
             style="fill:#dc3e84;fill-opacity:1;fill-rule:nonzero;stroke:none"
             d="m 0,0 c 0.072,-0.113 -4.181,-2.977 -9.499,-6.396 -5.32,-3.419 -9.689,-6.1 -9.763,-5.987 -0.072,0.112 4.181,2.976 9.5,6.396 C -4.443,-2.568 -0.072,0.112 0,0" /></g><g
           transform="translate(405.1354,143.2643)"
           id="g2399"><path
             id="path2401"
             style="fill:#dc3e84;fill-opacity:1;fill-rule:nonzero;stroke:none"
             d="m 0,0 c -0.093,-0.096 -2.974,2.566 -6.433,5.945 -3.461,3.38 -6.189,6.197 -6.095,6.292 0.093,0.096 2.973,-2.565 6.434,-5.945 C -2.635,2.913 0.094,0.096 0,0" /></g><g
           transform="translate(408.152,143.5241)"
           id="g2403"><path
             id="path2405"
             style="fill:#63134f;fill-opacity:1;fill-rule:nonzero;stroke:none"
             d="m 0,0 3.651,0.303 c 2.592,0.214 5.108,0.981 7.374,2.257 1.12,0.63 2.246,1.248 3.437,1.726 4.515,1.812 9.551,1.487 14.409,1.732 7.93,0.398 15.776,2.403 22.923,5.861 0.413,0.2 0.778,0.505 0.999,0.906 0.75,1.366 -0.643,2.583 -1.842,3.322 C 44.8,19.897 38.538,23.736 31.562,25.618 24.585,27.5 16.666,27.182 10.714,23.085 3.727,18.276 1.181,8.399 0,0" /></g><g
           transform="translate(461.027,156.7585)"
           id="g2407"><path
             id="path2409"
             style="fill:#dc3e84;fill-opacity:1;fill-rule:nonzero;stroke:none"
             d="m 0,0 c -0.008,-0.015 -0.221,0.085 -0.619,0.288 -0.438,0.23 -1.013,0.53 -1.731,0.906 -1.501,0.789 -3.662,1.954 -6.392,3.264 -2.732,1.296 -6.042,2.758 -9.895,3.813 -3.836,1.067 -8.26,1.625 -12.824,1.04 -4.545,-0.599 -8.729,-2.368 -11.691,-5.021 -2.982,-2.644 -4.802,-5.837 -6.088,-8.551 -1.283,-2.736 -2.073,-5.064 -2.649,-6.657 -0.269,-0.764 -0.485,-1.376 -0.65,-1.842 -0.151,-0.42 -0.239,-0.638 -0.255,-0.633 -0.017,0.005 0.04,0.234 0.162,0.664 0.143,0.472 0.33,1.094 0.565,1.871 0.52,1.614 1.262,3.963 2.516,6.742 1.256,2.752 3.068,6.013 6.103,8.741 3.017,2.737 7.3,4.559 11.924,5.166 4.641,0.596 9.138,0.012 13.006,-1.089 3.886,-1.092 7.203,-2.597 9.926,-3.935 C -5.87,3.413 -3.732,2.2 -2.259,1.359 -1.559,0.951 -0.998,0.623 -0.571,0.373 -0.188,0.143 0.009,0.015 0,0" /></g><g
           transform="translate(452.2584,152.0475)"
           id="g2411"><path
             id="path2413"
             style="fill:#dc3e84;fill-opacity:1;fill-rule:nonzero;stroke:none"
             d="m 0,0 c -0.075,-0.111 -4.851,2.978 -10.665,6.898 -5.817,3.923 -10.471,7.192 -10.396,7.302 0.075,0.112 4.85,-2.977 10.666,-6.899 C -4.579,3.38 0.075,0.11 0,0" /></g><g
           transform="translate(447.1647,166.4997)"
           id="g2415"><path
             id="path2417"
             style="fill:#1a2e35;fill-opacity:1;fill-rule:nonzero;stroke:none"
             d="m 0,0 c 0.023,-0.106 -1.521,-0.466 -3.477,-0.625 -1.955,-0.164 -3.547,-0.062 -3.545,0.046 0,0.115 1.574,0.196 3.503,0.357 C -1.588,-0.064 -0.024,0.113 0,0" /></g><g
           transform="translate(426.2594,169.2243)"
           id="g2419"><path
             id="path2421"
             style="fill:#dc3e84;fill-opacity:1;fill-rule:nonzero;stroke:none"
             d="m 0,0 c 0.115,-0.054 -0.586,-1.149 -1.566,-2.447 -0.982,-1.299 -1.87,-2.309 -1.985,-2.255 -0.115,0.053 0.586,1.148 1.567,2.447 C -1.004,-0.957 -0.115,0.053 0,0" /></g><g
           transform="translate(430.5377,149.2341)"
           id="g2423"><path
             id="path2425"
             style="fill:#dc3e84;fill-opacity:1;fill-rule:nonzero;stroke:none"
             d="m 0,0 c -0.033,-0.055 -0.918,0.409 -2.298,1.246 -1.38,0.837 -3.244,2.065 -5.236,3.51 -1.991,1.448 -3.748,2.815 -5.011,3.816 -1.261,1.003 -2.022,1.647 -1.982,1.7 0.039,0.053 0.875,-0.493 2.188,-1.425 1.433,-1.041 3.169,-2.303 5.09,-3.699 1.985,-1.441 3.81,-2.706 5.137,-3.614 C -0.784,0.626 0.037,0.06 0,0" /></g><g
           transform="translate(413.528,128.0114)"
           id="g2427"><path
             id="path2429"
             style="fill:#63134f;fill-opacity:1;fill-rule:nonzero;stroke:none"
             d="m 0,0 c -3.482,0.92 -7.634,-2.468 -8.352,-5.998 -0.717,-3.53 0.606,-7.14 2.156,-10.392 3.431,-7.198 8.166,-13.875 14.402,-18.844 6.236,-4.969 14.048,-8.148 22.022,-8.107 -1.472,6.839 0.39,13.984 -0.431,20.931 -0.717,6.063 -3.544,11.857 -7.883,16.153 C 17.575,-1.961 11.754,0.808 5.684,1.464 3.46,1.704 0.887,2.053 0,0" /></g><g
           transform="translate(443.7555,84.6706)"
           id="g2431"><path
             id="path2433"
             style="fill:#dc3e84;fill-opacity:1;fill-rule:nonzero;stroke:none"
             d="m 0,0 c -0.008,-0.015 -0.178,0.064 -0.495,0.23 -0.315,0.172 -0.769,0.449 -1.303,0.875 -1.094,0.83 -2.346,2.43 -3.438,4.599 -0.556,1.078 -1.176,2.249 -1.784,3.545 -0.587,1.301 -1.214,2.687 -1.873,4.142 -0.665,1.451 -1.395,2.958 -2.302,4.427 -0.904,1.472 -1.978,2.911 -3.169,4.31 -2.384,2.801 -4.943,5.224 -7.16,7.538 -2.23,2.306 -4.105,4.527 -5.46,6.551 -1.369,2.015 -2.198,3.822 -2.668,5.096 -0.224,0.641 -0.386,1.144 -0.465,1.493 -0.088,0.346 -0.126,0.53 -0.111,0.535 0.046,0.013 0.244,-0.711 0.751,-1.96 0.521,-1.241 1.386,-3.001 2.776,-4.97 1.376,-1.977 3.26,-4.154 5.497,-6.433 2.227,-2.291 4.801,-4.707 7.21,-7.537 1.203,-1.413 2.291,-2.875 3.204,-4.375 0.918,-1.499 1.647,-3.028 2.304,-4.491 0.644,-1.461 1.257,-2.851 1.832,-4.157 0.585,-1.29 1.188,-2.473 1.722,-3.557 1.049,-2.174 2.22,-3.75 3.255,-4.611 C -0.659,0.372 0.029,0.047 0,0" /></g><g
           transform="translate(425.7457,90.3542)"
           id="g2435"><path
             id="path2437"
             style="fill:#dc3e84;fill-opacity:1;fill-rule:nonzero;stroke:none"
             d="m 0,0 c -0.062,0.012 0.047,0.909 0.32,2.344 0.273,1.434 0.72,3.403 1.324,5.549 0.605,2.145 1.251,4.057 1.767,5.423 0.516,1.367 0.891,2.189 0.95,2.166 C 4.427,15.459 4.166,14.595 3.735,13.205 3.304,11.815 2.712,9.896 2.11,7.761 1.51,5.626 1.012,3.681 0.654,2.27 0.297,0.859 0.068,-0.014 0,0" /></g><g
           transform="translate(443.0963,107.1403)"
           id="g2439"><path
             id="path2441"
             style="fill:#dc3e84;fill-opacity:1;fill-rule:nonzero;stroke:none"
             d="m 0,0 c -0.021,-0.066 -0.953,0.172 -2.454,0.564 -1.5,0.392 -3.572,0.928 -5.878,1.449 -2.307,0.518 -4.409,0.923 -5.933,1.211 -1.524,0.289 -2.467,0.473 -2.458,0.542 0.009,0.063 0.97,-10e-4 2.513,-0.203 1.542,-0.204 3.666,-0.556 5.984,-1.078 C -5.908,1.963 -3.839,1.371 -2.358,0.894 -0.877,0.415 0.019,0.062 0,0" /></g><g
           transform="translate(412.8219,102.2634)"
           id="g2443"><path
             id="path2445"
             style="fill:#dc3e84;fill-opacity:1;fill-rule:nonzero;stroke:none"
             d="m 0,0 c -0.063,0.012 0.071,1.05 0.377,2.713 0.307,1.662 0.794,3.948 1.445,6.445 0.653,2.498 1.345,4.731 1.89,6.33 0.546,1.601 0.935,2.572 0.997,2.551 C 4.774,18.018 4.5,17.009 4.039,15.387 3.579,13.764 2.941,11.524 2.291,9.036 1.643,6.548 1.104,4.282 0.712,2.642 0.321,1.001 0.068,-0.014 0,0" /></g><g
           transform="translate(435.1061,121.7692)"
           id="g2447"><path
             id="path2449"
             style="fill:#dc3e84;fill-opacity:1;fill-rule:nonzero;stroke:none"
             d="m 0,0 c -0.015,-0.133 -4.362,0.219 -9.71,0.786 -5.35,0.568 -9.674,1.135 -9.66,1.268 0.015,0.133 4.361,-0.219 9.711,-0.786 C -4.311,0.701 0.014,0.133 0,0" /></g><g
           transform="translate(431.9205,69.0436)"
           id="g2451"><path
             id="path2453"
             style="fill:#375a64;fill-opacity:1;fill-rule:nonzero;stroke:none"
             d="m 0,0 c 0,-0.134 -15.283,-0.242 -34.133,-0.242 -18.854,0 -34.136,0.108 -34.136,0.242 0,0.134 15.282,0.242 34.136,0.242 C -15.283,0.242 0,0.134 0,0" /></g><g
           transform="translate(421.2877,49.3757)"
           id="g2455"><path
             id="path2457"
             style="fill:#375a64;fill-opacity:1;fill-rule:nonzero;stroke:none"
             d="m 0,0 c 0,-0.134 -10.298,-0.242 -22.998,-0.242 -12.704,0 -22.999,0.108 -22.999,0.242 0,0.134 10.295,0.242 22.999,0.242 C -10.298,0.242 0,0.134 0,0" /></g><g
           transform="translate(420.8883,46.5632)"
           id="g2459"><path
             id="path2461"
             style="fill:#375a64;fill-opacity:1;fill-rule:nonzero;stroke:none"
             d="m 0,0 c 0,-0.134 -10.119,-0.242 -22.598,-0.242 -12.482,0 -22.598,0.108 -22.598,0.242 0,0.134 10.116,0.243 22.598,0.243 C -10.119,0.243 0,0.134 0,0" /></g><g
           transform="translate(421.6891,51.694)"
           id="g2463"><path
             id="path2465"
             style="fill:#375a64;fill-opacity:1;fill-rule:nonzero;stroke:none"
             d="m 0,0 c 0,-0.135 -10.651,-0.243 -23.788,-0.243 -13.141,0 -23.79,0.108 -23.79,0.243 0,0.134 10.649,0.242 23.79,0.242 C -10.651,0.242 0,0.134 0,0" /></g></g></g><g
       id="g2467"><g
         style="fill:#dc3e84;fill-opacity:1"
         clip-path="url(#clipPath2473)"
         id="g2469"><g
           style="fill:#dc3e84;fill-opacity:1"
           transform="translate(285.0153,452.8024)"
           id="g2475"><path
             id="path2477"
             style="fill:#dc3e84;fill-opacity:1;fill-rule:nonzero;stroke:none;stroke-width:0.99975002;stroke-miterlimit:4;stroke-dasharray:none"
             d="m 0,0 c -8.925,1.988 -20.371,-4.204 -23.456,-12.543 -3.085,-8.34 0.263,-18.66 6.978,-24.488 -5.24,-6.74 -5.459,-16.766 -1.03,-24.064 4.429,-7.299 13.017,-11.682 21.554,-11.63 8.537,0.052 16.819,4.298 22.372,10.783 7.231,-3.564 16.442,-2.686 22.87,2.181 6.428,4.867 9.771,13.494 8.301,21.422 10.116,3.692 15.676,16.621 11.394,26.503 C 64.703,-1.955 51.469,2.833 41.856,-2.022 42.064,8.75 32.67,18.8 21.91,19.32 11.149,19.84 0.83,10.741 0,0 0.663,0.107 -0.664,-0.107 0,0" /></g><g
           style="fill:#dc3e84;fill-opacity:1"
           transform="translate(285.0153,452.8024)"
           id="g2479"><path
             id="path2481"
             style="fill:#dc3e84;fill-opacity:1;fill-rule:nonzero;stroke:none;stroke-width:32.87475082;stroke-miterlimit:4;stroke-dasharray:none"
             d="m 0,0 c 0,0 -0.042,-0.014 -0.159,-0.037 l -0.023,-0.004 -0.005,-0.001 c -0.012,0.045 -0.003,0.013 -0.002,0.023 l 0.011,0.002 0.055,0.011 C -0.083,0.001 -0.039,0.009 0.01,0.018 0.06,0.027 0.115,0.037 0.176,0.047 0.175,-0.03 0.063,0.006 0.003,-0.021 l -0.03,-0.014 0.006,0.036 c 0.131,0.858 0.167,3.126 1.536,6.225 0.654,1.551 1.664,3.266 3.056,5.031 1.398,1.763 3.282,3.5 5.633,4.99 2.346,1.487 5.23,2.674 8.497,3.077 0.408,0.046 0.82,0.092 1.236,0.139 0.418,0.003 0.84,0.007 1.266,0.011 0.855,0.052 1.712,-0.119 2.59,-0.184 1.728,-0.315 3.517,-0.742 5.208,-1.559 0.436,-0.176 0.861,-0.379 1.27,-0.623 0.415,-0.233 0.84,-0.453 1.252,-0.702 0.794,-0.548 1.629,-1.062 2.373,-1.72 0.793,-0.6 1.482,-1.334 2.215,-2.04 0.659,-0.774 1.368,-1.527 1.945,-2.399 2.465,-3.359 4.032,-7.684 4.011,-12.273 l -0.306,0.193 c 4.181,2.092 9.351,2.493 14.22,1.115 4.847,-1.352 9.558,-4.477 12.313,-9.22 2.792,-4.726 3.073,-10.848 1.127,-16.228 -0.963,-2.701 -2.459,-5.255 -4.443,-7.425 -1.981,-2.166 -4.472,-3.942 -7.301,-4.989 l 0.165,0.288 c 0.766,-4.138 0.237,-8.572 -1.449,-12.586 -1.682,-4.006 -4.539,-7.652 -8.336,-10.048 -6.57,-4.168 -15.108,-4.502 -21.753,-1.247 l 0.309,0.063 c -4.801,-5.555 -11.381,-9.354 -18.269,-10.481 -6.892,-1.199 -13.93,0.562 -19.266,4.264 -2.674,1.851 -4.94,4.184 -6.599,6.835 -1.649,2.654 -2.688,5.601 -3.086,8.552 -0.44,2.95 -0.244,5.902 0.425,8.648 0.687,2.745 1.928,5.263 3.547,7.383 l 0.027,-0.272 c -3.251,2.852 -5.459,6.464 -6.774,10.106 -0.669,1.824 -1.062,3.686 -1.257,5.505 -0.189,1.819 -0.182,3.611 0.094,5.307 0.482,3.4 1.914,6.423 3.87,8.621 1.916,2.24 4.107,3.868 6.208,5.051 2.11,1.185 4.146,1.921 5.947,2.387 1.809,0.454 3.39,0.597 4.664,0.618 C -2.584,0.408 -1.609,0.329 -0.97,0.188 -0.326,0.073 0,0 0,0 0,0 -0.335,0.035 -0.979,0.13 -1.618,0.25 -2.59,0.311 -3.854,0.297 -5.119,0.258 -6.687,0.098 -8.478,-0.37 c -1.783,-0.48 -3.796,-1.226 -5.878,-2.415 -2.075,-1.187 -4.233,-2.813 -6.111,-5.032 -1.918,-2.182 -3.302,-5.141 -3.762,-8.492 -0.266,-1.67 -0.265,-3.434 -0.071,-5.225 0.198,-1.79 0.592,-3.624 1.258,-5.42 1.308,-3.585 3.496,-7.136 6.695,-9.926 l 0.141,-0.123 -0.114,-0.15 c -1.577,-2.08 -2.787,-4.548 -3.453,-7.241 -0.65,-2.694 -0.836,-5.591 -0.398,-8.483 0.397,-2.894 1.422,-5.779 3.038,-8.371 1.629,-2.592 3.855,-4.876 6.481,-6.688 5.245,-3.626 12.151,-5.346 18.914,-4.163 6.762,1.112 13.24,4.857 17.96,10.325 l 0.131,0.151 0.179,-0.088 c 6.475,-3.172 14.841,-2.844 21.245,1.225 3.7,2.333 6.492,5.892 8.137,9.809 1.65,3.924 2.168,8.259 1.423,12.291 l -0.04,0.213 0.204,0.075 c 5.527,2.049 9.586,6.845 11.449,12.099 1.907,5.261 1.635,11.227 -1.072,15.821 -2.671,4.617 -7.274,7.691 -12.021,9.023 -4.768,1.358 -9.824,0.973 -13.906,-1.055 l -0.308,-0.154 0.002,0.346 c 0.029,4.481 -1.492,8.73 -3.905,12.039 -0.564,0.86 -1.261,1.601 -1.905,2.366 -0.72,0.696 -1.395,1.422 -2.173,2.013 -0.729,0.651 -1.55,1.158 -2.328,1.701 -0.405,0.246 -0.823,0.463 -1.23,0.695 -0.401,0.242 -0.819,0.443 -1.247,0.617 -1.661,0.811 -3.417,1.235 -5.113,1.552 -0.862,0.067 -1.705,0.241 -2.544,0.192 C 20.781,19.155 20.366,19.153 19.955,19.151 19.546,19.107 19.141,19.063 18.738,19.02 15.521,18.639 12.669,17.484 10.341,16.027 8.008,14.568 6.131,12.861 4.733,11.125 3.341,9.386 2.323,7.695 1.658,6.163 0.266,3.104 0.191,0.852 0.021,-0.002 L -0.004,0.021 C 0.062,0.014 0.156,0.083 0.182,0.01 0.121,0.001 0.065,-0.007 0.015,-0.014 -0.034,-0.021 -0.078,-0.027 -0.118,-0.033 l -0.056,-0.008 -0.013,-0.001 c -0.002,0.01 0,-0.024 -0.004,0.022 l 0.005,0.001 0.024,0.003 C -0.045,0 0,0 0,0" /></g><g
           style="fill:#63134f;fill-opacity:1"
           transform="translate(301.8082,408.6794)"
           id="g2483"><path
             id="path2485"
             style="fill:#63134f;fill-opacity:1;fill-rule:nonzero;stroke:none"
             d="m 0,0 c 2.099,-1.163 4.507,-1.703 6.858,-1.377 2.773,0.383 5.368,1.998 7.121,4.431 1.662,2.306 2.34,5.097 1.863,7.657 -0.482,2.584 -2.132,4.937 -4.528,6.459 -1.909,1.218 -4.119,1.803 -6.275,1.703 l 0.185,9.028 C 5.242,28.783 4.541,29.514 3.658,29.532 2.775,29.549 2.045,28.849 2.027,27.966 L 1.805,17.051 C 1.794,16.55 2.02,16.074 2.412,15.763 2.802,15.453 3.32,15.345 3.806,15.472 5.707,15.967 7.816,15.606 9.601,14.471 11.25,13.424 12.38,11.84 12.699,10.126 13.018,8.419 12.538,6.524 11.385,4.922 10.141,3.196 8.331,2.054 6.421,1.79 2.619,1.263 -1.559,4.08 -2.703,7.937 -2.953,8.784 -3.842,9.266 -4.689,9.016 -5.535,8.765 -6.019,7.875 -5.768,7.029 -4.872,4.006 -2.691,1.491 0,0" /></g><g
           style="fill:#63134f;fill-opacity:1"
           transform="translate(307.6364,443.1364)"
           id="g2487"><path
             id="path2489"
             style="fill:#63134f;fill-opacity:1;fill-rule:nonzero;stroke:none"
             d="m 0,0 c 0.045,0.989 -0.72,1.828 -1.709,1.874 -0.989,0.045 -1.828,-0.72 -1.874,-1.709 -0.045,-0.99 0.72,-1.829 1.709,-1.874 C -0.885,-1.755 -0.046,-0.989 0,0" /></g><g
           style="fill:#dc3e84;fill-opacity:1"
           transform="translate(248.2438,402.7766)"
           id="g2491"><path
             id="path2493"
             style="fill:#dc3e84;fill-opacity:1;fill-rule:nonzero;stroke:none"
             d="m 0,0 c -4.544,0.505 -9.139,-3.164 -9.651,-7.708 -0.512,-4.542 3.151,-9.143 7.694,-9.661 4.542,-0.519 9.147,3.138 9.673,7.68 0.524,4.542 -3.125,9.152 -7.666,9.684" /></g><g
           style="fill:#dc3e84;fill-opacity:1"
           transform="translate(248.2936,402.7712)"
           id="g2495"><path
             id="path2497"
             style="fill:#dc3e84;fill-opacity:1;fill-rule:nonzero;stroke:none"
             d="m 0,0 c 0,0 0.787,0.033 2.098,-0.454 1.293,-0.476 3.106,-1.611 4.452,-3.75 0.657,-1.063 1.195,-2.371 1.344,-3.854 0.136,-1.476 -0.125,-3.119 -0.932,-4.591 -0.384,-0.743 -0.89,-1.445 -1.5,-2.071 -0.598,-0.637 -1.3,-1.203 -2.087,-1.659 -1.55,-0.944 -3.472,-1.44 -5.41,-1.244 -1.933,0.245 -3.694,1.161 -4.993,2.43 -0.664,0.622 -1.221,1.332 -1.66,2.088 -0.453,0.747 -0.788,1.545 -0.994,2.355 -0.455,1.616 -0.339,3.276 0.126,4.684 0.479,1.411 1.299,2.565 2.178,3.452 1.793,1.78 3.816,2.478 5.182,2.65 1.387,0.179 2.146,-0.031 2.146,-0.031 -0.002,-0.064 -0.771,0.067 -2.114,-0.169 -1.322,-0.228 -3.259,-0.962 -4.951,-2.708 -0.83,-0.87 -1.594,-1.986 -2.031,-3.33 -0.421,-1.34 -0.516,-2.896 -0.073,-4.423 0.201,-0.764 0.524,-1.519 0.958,-2.226 0.421,-0.714 0.953,-1.386 1.585,-1.972 1.236,-1.2 2.897,-2.052 4.7,-2.282 1.808,-0.182 3.618,0.274 5.092,1.165 0.747,0.429 1.417,0.963 1.988,1.565 0.582,0.59 1.066,1.253 1.434,1.952 0.775,1.387 1.034,2.925 0.925,4.325 C 7.341,-6.691 6.848,-5.431 6.235,-4.396 4.98,-2.313 3.259,-1.162 2.021,-0.642 0.767,-0.109 -0.012,-0.063 0,0" /></g><g
           style="fill:#dc3e84;fill-opacity:1"
           transform="translate(231.2194,383.756)"
           id="g2499"><path
             id="path2501"
             style="fill:#dc3e84;fill-opacity:1;fill-rule:nonzero;stroke:none"
             d="m 0,0 c -1.959,0.218 -3.941,-1.365 -4.162,-3.324 -0.221,-1.96 1.359,-3.944 3.318,-4.167 1.959,-0.224 3.946,1.353 4.172,3.312 0.226,1.959 -1.348,3.947 -3.307,4.176" /></g><g
           style="fill:#dc3e84;fill-opacity:1"
           transform="translate(231.2409,383.7531)"
           id="g2503"><path
             id="path2505"
             style="fill:#dc3e84;fill-opacity:1;fill-rule:nonzero;stroke:none"
             d="M 0,0 C 0,0.023 0.345,0.055 0.927,-0.142 1.5,-0.334 2.308,-0.82 2.914,-1.758 3.21,-2.225 3.455,-2.803 3.526,-3.464 3.593,-4.122 3.48,-4.861 3.123,-5.519 2.446,-6.828 0.883,-7.925 -0.895,-7.747 c -1.772,0.226 -3.048,1.648 -3.413,3.076 -0.199,0.722 -0.143,1.467 0.07,2.093 0.219,0.629 0.588,1.137 0.981,1.524 0.802,0.778 1.699,1.068 2.3,1.127 0.612,0.06 0.941,-0.048 0.936,-0.071 -0.004,-0.047 -0.336,-0.011 -0.903,-0.129 -0.558,-0.114 -1.369,-0.441 -2.07,-1.185 C -3.691,-2.029 -4.23,-3.26 -3.844,-4.546 -3.505,-5.8 -2.342,-7.045 -0.835,-7.23 0.673,-7.389 2.086,-6.438 2.7,-5.293 3.365,-4.127 3.118,-2.807 2.6,-1.95 2.084,-1.068 1.368,-0.567 0.85,-0.33 0.325,-0.087 -0.007,-0.047 0,0" /></g></g></g></g></svg>
